<?xml version="1.0" standalone="no"?><!DOCTYPE svg PUBLIC "-//W3C//DTD SVG 1.1//EN" "http://www.w3.org/Graphics/SVG/1.1/DTD/svg11.dtd"><svg t="1743305238139" class="icon" viewBox="0 0 1024 1024" version="1.1" xmlns="http://www.w3.org/2000/svg" p-id="4758" xmlns:xlink="http://www.w3.org/1999/xlink" width="200" height="200"><path d="M543.7 739.6c-1.4 0.4-2.6 0.8-5.5 1.6-1.5 0.4-3 0.8-5.5 1.5-14.7 3.9-23.5 18.9-19.6 33.6 3.9 14.7 18.9 23.5 33.6 19.6 2.8-0.7 4.6-1.2 6.5-1.8 3.2-0.9 4.6-1.3 6.5-1.9 14.5-4.4 22.7-19.8 18.3-34.4-4.4-14.4-19.8-22.6-34.3-18.2zM303.2 593.1l23.8 31.2c5.9-5.9 12.9-12.4 20.8-19.3 7.9-7.9 20.3-17.3 37.1-28.2 6.9-4.9 11.9-8.4 14.9-10.4-4-13.9-7-27.7-8.9-41.6l-35.6 26.7V400h-72.8v37.1h34.2v124.8c0.8 14.8-3.6 25.2-13.5 31.2z m87.6-224.3h173.8v34.1H390.8v-34.1z m-13.4-25.3c-5.9-6.9-14.4-17.3-25.2-31.2-11.9-13.9-20.8-24.3-26.7-31.2l-32.7 19.3c5.9 7 13.9 17.3 23.8 31.2 11.9 14.8 20.8 26.2 26.7 34.2l34.1-22.3zM575 628.7c34.6 0 51-15.8 49-47.5V294.5H399.7v35.6h184.2v237.6c2 16.9-6.9 24.3-26.7 22.3h-49c3.9 15.8 6.4 28.7 7.4 38.6l59.4 0.1z m201.6 103.8l-49.2-49.2c36.8-43.1 63.4-94.8 76.2-150.4 33.5-145-29-298.8-154.2-379.2-123.5-79.3-288.1-73.2-405.2 15.2-118.6 89.4-169.5 247-125.7 388.8C162.6 700.3 295.7 802 445 807.4c15.2 0.5 27.9-11.3 28.5-26.5 0.5-15.2-11.3-27.9-26.5-28.5-125.9-4.5-238.7-90.7-275.8-210.9-37-119.7 6.2-253.2 106.2-328.6 98.8-74.5 238.2-79.8 342.3-12.9C725.3 267.9 778.3 398.2 750 520.5c-17.5 75.5-64.9 142.6-130.4 184.7-12.8 8.2-16.5 25.2-8.3 38s25.2 16.5 38 8.3c13.8-8.8 26.5-18.9 38.9-29.5l49.4 49.4 95.5 95.5c10.7 10.7 28.2 10.7 38.9 0s10.7-28.2 0-38.9c-7.7-7.8-40.7-40.9-95.4-95.5zM543.8 441.6H407.1v126.2h136.6V441.6z m-35.7 93.5h-65.4v-60.9h65.4v60.9z" p-id="4759"></path></svg>