<?xml version="1.0" standalone="no"?><!DOCTYPE svg PUBLIC "-//W3C//DTD SVG 1.1//EN" "http://www.w3.org/Graphics/SVG/1.1/DTD/svg11.dtd"><svg t="1743262222467" class="icon" viewBox="0 0 1024 1024" version="1.1" xmlns="http://www.w3.org/2000/svg" p-id="7643" xmlns:xlink="http://www.w3.org/1999/xlink" width="200" height="200"><path d="M863.99362 863.98434a127.99768 127.99768 0 0 0 0-255.99536 127.99768 127.99768 0 0 0-63.99884 17.919675l-90.878353-89.598376A157.437146 157.437146 0 0 0 703.99652 350.073655l47.99913-72.318689a127.99768 127.99768 0 1 0-50.559084-39.679281l-46.719153 70.398724A155.517181 155.517181 0 0 0 478.080615 319.9942L345.603016 234.235754a155.517181 155.517181 0 0 0-40.319269-155.517181 159.9971 159.9971 0 1 0 0 226.555894 161.917065 161.917065 0 0 0 10.879803-13.439757l120.317819 79.998551a150.397274 150.397274 0 0 0-14.079745 117.117877L320.00348 541.430187A159.357112 159.357112 0 1 0 352.0029 639.9884a158.077135 158.077135 0 0 0-5.759896-40.959257L448.00116 546.550094a159.357112 159.357112 0 0 0 85.758446 56.318979L494.720313 767.98608H480.00058a127.99768 127.99768 0 1 0 74.878643 24.319559l46.719153-186.876612a158.717123 158.717123 0 0 0 63.99884-24.31956l90.238364 90.238365a127.99768 127.99768 0 0 0-17.919675 63.99884 127.99768 127.99768 0 0 0 126.077715 128.637668zM259.84457 259.83529A95.99826 95.99826 0 1 1 288.00406 191.99652a95.99826 95.99826 0 0 1-28.15949 67.83877zM192.0058 735.98666A95.99826 95.99826 0 1 1 288.00406 639.9884 95.99826 95.99826 0 0 1 192.0058 735.98666zM480.00058 959.9826a63.99884 63.99884 0 1 1 63.99884-63.99884 63.99884 63.99884 0 0 1-63.99884 63.99884z m447.99188-223.99594a63.99884 63.99884 0 1 1-63.99884-63.99884 63.99884 63.99884 0 0 1 63.99884 63.99884z m-127.99768-639.9884a63.99884 63.99884 0 1 1-63.99884 63.99884 63.99884 63.99884 0 0 1 63.99884-63.99884zM480.00058 447.99188A95.99826 95.99826 0 1 1 575.99884 543.99014 95.99826 95.99826 0 0 1 480.00058 447.99188z" p-id="7644"></path></svg>