<?xml version="1.0" standalone="no"?><!DOCTYPE svg PUBLIC "-//W3C//DTD SVG 1.1//EN" "http://www.w3.org/Graphics/SVG/1.1/DTD/svg11.dtd"><svg t="1743685130151" class="icon" viewBox="0 0 1024 1024" version="1.1" xmlns="http://www.w3.org/2000/svg" p-id="2372" xmlns:xlink="http://www.w3.org/1999/xlink" width="200" height="200"><path d="M905.329778 58.538667a29.240889 29.240889 0 0 0-29.240889 29.240889v819.2a58.538667 58.538667 0 0 1-58.538667 58.538666h-614.4a87.779556 87.779556 0 0 1 0-175.559111h555.918222a58.538667 58.538667 0 0 0 58.538667-58.538667V58.595556A58.538667 58.538667 0 0 0 759.011556 0h-555.804445C106.154667 0 56.888889 49.322667 56.888889 146.261333v702.179556C56.888889 945.493333 106.211556 1024 203.150222 1024H876.088889a58.538667 58.538667 0 0 0 58.538667-58.538667V87.779556a29.240889 29.240889 0 0 0-29.297778-29.240889z m-247.352889 578.56H431.274667c0-22.072889 17.92-39.936 39.936-39.936h146.830222c22.016 0 39.936 17.863111 39.936 39.936z m-44.600889-214.016c7.395556 7.452444 7.395556 19.512889 0 26.965333l-74.524444 74.581333a19.057778 19.057778 0 1 1-26.908445-26.908444l74.524445-74.638222a19.000889 19.000889 0 0 1 26.908444 0zM335.189333 319.146667l74.581334-74.638223a19.057778 19.057778 0 0 1 26.908444 26.965334l-74.524444 74.581333a19.057778 19.057778 0 1 1-26.965334-26.908444zM266.581333 563.427556L415.687111 414.151111l-49.720889-49.777778L454.997333 275.342222l128.455111 128.455111L494.364444 492.942222l-45.511111-45.624889-149.048889 149.276445a23.438222 23.438222 0 0 1-33.223111-33.166222z m-64.170666 291.84a28.444444 28.444444 0 1 0 0 56.832h564.849777a28.444444 28.444444 0 1 0 0-56.888889H202.410667z" p-id="2373"></path></svg>