<?xml version="1.0" standalone="no"?><!DOCTYPE svg PUBLIC "-//W3C//DTD SVG 1.1//EN" "http://www.w3.org/Graphics/SVG/1.1/DTD/svg11.dtd"><svg t="1743685139001" class="icon" viewBox="0 0 1024 1024" version="1.1" xmlns="http://www.w3.org/2000/svg" p-id="2532" xmlns:xlink="http://www.w3.org/1999/xlink" width="200" height="200"><path d="M334.976007 628.181307v-8.021333c0.64-6.656 5.333333-10.325333 13.994666-11.007999 8.021333 0.682667 12.330666 4.352 13.013333 11.007999v8.021333h32.981332c6.656 0.682667 10.325333 4.992 11.008 13.013333-0.682667 8.021333-4.352 12.330666-11.008 13.013333h-32.981332v15.999999h50.986665c0-4.650666-0.341333-13.013333-0.981333-25.002666v-20.010665c0.64-8.661333 5.333333-13.311999 13.994666-13.994666 8.661333 0.682667 13.311999 5.333333 13.994666 13.994666 0 6.016 0.341333 14.335999 0.981333 25.002665v20.010666h48.981331c7.338666 0.682667 11.349333 4.992 11.989333 13.013333-0.682667 8.661333-4.650666 13.354666-11.989333 13.994666h-45.994664c1.322667 17.322666 3.328 34.687999 6.015999 52.010664 4.650666-9.344 9.344-20.991999 13.994666-34.986665 3.328-5.333333 8.661333-6.656 16-4.010666 6.656 2.688 9.344 7.338666 8.021333 13.994666-4.650666 17.322666-13.994666 38.655998-27.989332 63.999997 2.005333 5.333333 2.346667 6.016 0.981333 2.005333 1.322667 4.010666 3.669333 8.661333 6.997333 13.994666 2.645333 4.650666 4.650666 6.997333 6.016 6.997334 1.322667 0 2.346667-2.346667 2.986666-6.997334v-9.002666c0.64-6.016 0.981333-9.642666 0.981333-11.007999 0-7.338666 3.669333-11.349333 11.008-11.989333 7.338666 0 11.349333 3.669333 11.989333 11.007999 0 13.994666-0.341333 24.661332-0.981333 31.999999a106.197329 106.197329 0 0 1-6.016 20.991999c-8.021333 17.322666-20.010666 18.346666-36.010665 2.986667-5.333333-7.338666-11.008-15.658666-16.981333-25.002666-11.989333 11.349333-25.002666 21.333332-38.997332 29.994665-7.338666 4.650666-13.653333 4.010666-18.986666-2.005333-5.333333-7.338666-4.650666-13.653333 2.005334-18.986666 16.639999-8.661333 31.658665-22.015999 45.013331-40.021331-8.021333-31.317332-13.013333-59.989331-15.018666-86.015997H358.954673c6.656 8.661333 8.32 14.335999 4.992 16.981333h38.997332c6.656 0.682667 10.325333 4.992 11.007999 13.013333-0.682667 8.021333-4.352 12.330666-11.007999 13.013332H351.95734c-5.333333 8.661333-13.653333 18.346666-25.002666 29.013333v34.986665c0 5.333333 4.309333 4.992 13.013333-0.981333 6.656-4.010666 12.330666-4.010666 16.981333 0 5.333333 6.656 5.333333 12.671999 0 18.005332-9.344 6.656-20.010666 11.989333-31.999999 15.999999-18.005333 5.333333-26.325332 2.005333-25.002665-9.983999v-34.005332c-4.010666 2.688-8.661333 5.674666-13.994667 9.002666-7.338666 3.328-13.013333 1.322667-16.981332-6.016-3.328-7.338666-1.664-13.311999 4.992-18.005332 19.327999-11.989333 34.005332-24.661332 43.989331-38.015999h-31.999999c-7.338666-0.64-11.349333-4.992-11.989332-13.013332 0.64-8.021333 4.650666-12.330666 11.989332-13.013333H334.933341c-6.016-7.338666-5.674666-13.013333 0.981333-16.981333H278.954676c-6.656-0.64-10.325333-5.333333-11.007999-13.994666 0.64-8.021333 4.309333-12.330666 11.007999-13.013333h54.997331v-15.999999h-38.015998c-7.338666-0.64-11.349333-4.992-11.989333-13.013333 0.64-8.021333 4.650666-12.330666 11.989333-13.013333h39.039998z m23.978666 137.002661c4.010666 2.688 6.314666 4.010666 6.997333 4.010667 2.005333-2.645333 4.309333-6.016 6.997333-9.984 2.645333-3.328 4.992-6.314666 6.997333-9.002666 4.650666-5.333333 10.325333-6.016 16.981333-2.005334 6.016 4.650666 7.338666 9.984 4.010666 16-6.656 9.984-11.349333 16.682666-13.994666 20.010666 4.010666 4.010666 7.637333 7.68 11.008 11.007999 4.010666 5.333333 3.328 11.008-2.005333 16.981333-6.016 4.650666-11.989333 4.992-18.005333 0.981333-11.989333-9.344-25.685332-19.327999-41.002665-29.994665-5.333333-4.650666-5.674666-10.666666-0.981333-18.005333 5.333333-6.656 11.008-8.021333 16.981332-4.010666 5.376 3.370667 7.338666 4.693333 6.016 4.010666z m100.991996-119.978662l-6.997333-6.997333c-4.650666-5.333333-4.650666-11.349333 0-18.005332 6.016-4.650666 11.989333-4.650666 18.005332 0 8.661333 8.661333 15.658666 15.999999 20.992 22.015999 4.650666 6.016 4.650666 11.989333 0 18.005332-6.016 5.333333-11.690666 5.333333-16.981333 0-3.328-3.370667-8.362666-8.362666-15.018666-15.018666z" p-id="2533"></path><path d="M614.399996 1023.999957H204.800013c-56.490664 0-102.399996-45.951998-102.399996-102.399995V102.399996C102.400017 45.909331 148.309348 0 204.800013 0h614.399974c56.447998 0 102.399996 45.909331 102.399996 102.399996v614.399974c0 28.287999-22.911999 51.199998-51.199998 51.199998h-204.799991v204.799991c0 28.287999-22.911999 51.199998-51.199998 51.199998zM204.800013 102.399996v819.199966h358.399985v-204.799992c0-28.287999 22.911999-51.199998 51.199998-51.199998h204.799991V102.399996H204.800013z" p-id="2534"></path><path d="M614.399996 1023.999957c-13.098666 0-26.197332-4.992-36.181332-15.018666-20.010666-20.010666-20.010666-52.394664 0-72.40533l255.999989-255.999989c20.010666-20.010666 52.394664-20.010666 72.405331 0s20.010666 52.394664 0 72.40533l-255.99999 255.999989A51.046398 51.046398 0 0 1 614.399996 1023.999957zM563.199998 563.199977H307.200009c-28.287999 0-51.199998-22.911999-51.199998-51.199998s22.911999-51.199998 51.199998-51.199998h255.999989c28.287999 0 51.199998 22.911999 51.199998 51.199998s-22.911999 51.199998-51.199998 51.199998zM716.799991 358.399985H307.200009c-28.287999 0-51.199998-22.911999-51.199998-51.199998s22.911999-51.199998 51.199998-51.199998h409.599982c28.287999 0 51.199998 22.911999 51.199998 51.199998s-22.911999 51.199998-51.199998 51.199998z" p-id="2535"></path></svg>