<?xml version="1.0" standalone="no"?><!DOCTYPE svg PUBLIC "-//W3C//DTD SVG 1.1//EN" "http://www.w3.org/Graphics/SVG/1.1/DTD/svg11.dtd"><svg t="1743685236167" class="icon" viewBox="0 0 1024 1024" version="1.1" xmlns="http://www.w3.org/2000/svg" p-id="11152" xmlns:xlink="http://www.w3.org/1999/xlink" width="200" height="200"><path d="M205.3601 744.0466c0-18.2856-14.8234-33.1049-33.1018-33.1049l-66.197504 0c-18.2825 0-33.1028 14.8183-33.1028 33.1049 0 18.2774 14.8204 33.0967 33.1028 33.0967l66.197504 0C190.5357 777.1423 205.3601 762.324 205.3601 744.0466zM74.3393 479.2494c0 18.2794 14.8204 33.0977 33.1018 33.0977l64.817152 0c18.2774 0 33.1018-14.8183 33.1018-33.0977 0-18.2845-14.8234-33.1028-33.1018-33.1028L107.441152 446.1466C89.1597 446.1466 74.3393 460.9649 74.3393 479.2494zM867.3526 84.1124l-66.1975-2.0593c0-18.2856-14.8183-33.1049-33.1018-33.1049L173.636608 48.9482c-18.2774 0-33.0977 14.8193-33.0977 33.1049l0 64.134144 33.097728 0c0 0 65.8872 6.2116 65.8872 66.2149 0 0 0.6984 66.3173-67.5697 66.3173l-31.4153 1.921 0.6871 130.3357 30.8849-0.0061c0 0 68.1329-0.0061 68.1329 70.3324 0 0-6.3437 64.1495-68.4052 64.1495l-31.1583 0.0133-0.5642 130.3153 32.982016 0c0 0 66.049 2.0654 66.049 68.267 0 0-0.1188 68.2598-68.3858 68.2598l-29.8076-2.0736-0.4137 66.2149c0 0 37.9269 99.2973 95.8484 99.2973l633.034752 0c0 0 31.0282-6.2044 31.0282-31.0313L900.451304 117.216256C900.4503 117.2163 894.2459 84.1124 867.3526 84.1124zM304.6554 280.6415l430.299136 0 0 264.809472L304.65536 545.450972 304.65536 280.641536zM801.154 909.5434 238.457856 909.5434c0 0-34.1361-11.3797-34.1361-34.133l563.7304-0.3441c18.2825 0 33.1018-14.8183 33.1018-33.1028L801.153956 112.049152l34.133 11.3797 0 755.083264C835.287 878.5121 836.3244 909.5434 801.154 909.5434zM106.0608 247.5448l66.197504 0c18.2774 0 33.1018-14.8183 33.1018-33.0967 0-18.2845-14.8234-33.1028-33.1018-33.1028l-66.197504 0c-18.2825 0-33.1028 14.8183-33.1028 33.1028C72.9569 232.7255 87.7783 247.5448 106.0608 247.5448zM652.2051 346.8493 387.406848 346.8493c-9.1423 0-16.5499 7.4127-16.5499 16.555 0 9.1372 7.4076 16.5417 16.5499 16.5417l264.798208 0c9.1392 0 16.5478-7.4045 16.5478-16.5417C668.7529 354.262 661.3443 346.8493 652.2051 346.8493zM652.2051 446.1466 387.406848 446.1466c-9.1423 0-16.5499 7.4056-16.5499 16.5478 0 9.1423 7.4076 16.555 16.5499 16.555l264.798208 0c9.1392 0 16.5478-7.4127 16.5478-16.555C668.7529 453.5532 661.3443 446.1466 652.2051 446.1466z" fill="#272636" p-id="11153"></path></svg>