<?xml version="1.0" standalone="no"?><!DOCTYPE svg PUBLIC "-//W3C//DTD SVG 1.1//EN" "http://www.w3.org/Graphics/SVG/1.1/DTD/svg11.dtd"><svg t="1743256289807" class="icon" viewBox="0 0 1025 1024" version="1.1" xmlns="http://www.w3.org/2000/svg" p-id="3780" xmlns:xlink="http://www.w3.org/1999/xlink" width="200.1953125" height="200"><path d="M843.229867 454.997333C853.6064 490.564267 859.136 528.247467 859.136 567.159467 859.136 789.162667 679.048533 969.181867 456.977067 969.181867 234.9056 969.181867 54.818133 789.162667 54.818133 567.159467 54.818133 345.156267 234.9056 165.137067 456.977067 165.137067 492.475733 165.137067 526.882133 169.7792 559.650133 178.3808L577.7408 126.429867C539.306667 115.9168 498.756267 110.318933 456.977067 110.318933 204.5952 110.318933 0 314.845867 0 567.159467 0 819.473067 204.5952 1024 456.977067 1024 709.358933 1024 913.954133 819.473067 913.954133 567.159467 913.954133 521.216 907.127467 476.7744 894.498133 434.926933L843.229867 454.997333 843.229867 454.997333 843.229867 454.997333ZM456.977067 402.705067C465.169067 402.705067 473.156267 403.319467 481.006933 404.48L499.3024 351.982933C485.5808 349.320533 471.4496 347.886933 456.977067 347.886933 335.872 347.886933 237.636267 446.0544 237.636267 567.159467 237.636267 688.264533 335.872 786.432 456.977067 786.432 578.1504 786.432 676.317867 688.264533 676.317867 567.159467 676.317867 551.7312 674.747733 536.644267 671.675733 522.103467L619.656533 542.446933C620.885333 550.5024 621.499733 558.762667 621.499733 567.159467 621.499733 658.0224 547.84 731.613867 456.977067 731.613867 366.114133 731.613867 292.4544 658.0224 292.4544 567.159467 292.4544 476.3648 366.114133 402.705067 456.977067 402.705067L456.977067 402.705067 456.977067 402.705067ZM1024 201.728 822.545067 201.728 822.545067 0 767.726933 55.5008 767.726933 55.773867 621.841067 201.728 621.499733 201.728 621.499733 364.202667 420.386133 565.179733 458.9568 603.682133 660.002133 402.705067 822.545067 402.705067 822.545067 402.500267 822.749867 402.705067 968.772267 256.682667 968.567467 256.477867 968.772267 256.477867 1024 201.728 1024 201.728 1024 201.728ZM801.655467 347.886933 676.317867 347.886933 676.317867 222.549333 767.726933 131.208533 767.726933 256.477867 893.064533 256.477867 801.655467 347.886933 801.655467 347.886933 801.655467 347.886933Z" p-id="3781"></path></svg>