<?xml version="1.0" standalone="no"?><!DOCTYPE svg PUBLIC "-//W3C//DTD SVG 1.1//EN" "http://www.w3.org/Graphics/SVG/1.1/DTD/svg11.dtd"><svg t="1743256364053" class="icon" viewBox="0 0 1024 1024" version="1.1" xmlns="http://www.w3.org/2000/svg" p-id="3080" xmlns:xlink="http://www.w3.org/1999/xlink" width="200" height="200"><path d="M246.1 928.2c-18.5 0.5-34-14.1-34.5-32.6s14.1-34 32.6-34.5h80v-37c-0.1-8.7 3.1-17.1 9.1-23.4l1.4-1.9c6.7-6.7 15.8-10.5 25.3-10.5h119.2V237.8c-11.1 2.4-22 5.9-32.5 10.3-10 4.4-19.5 9.5-28.7 15.5-9 6.4-17.4 13.6-25.1 21.5-19.5 18.9-42.3 34-67.4 44.4-12.9 5.5-26.4 9.8-40.1 12.9-5.3 1-10.7 1.7-15.8 2.8L356 609.3c4.9 1.7 9.3 4.5 12.9 8.3 12.9 13 12.9 34 0 47-16.7 16.8-36.4 30.2-58.2 39.4-43.9 17.8-93.1 17.8-137.1 0l-2-0.9c-21.2-9-40.3-22.1-56.3-38.5-13-12.8-13.1-33.7-0.3-46.7l0.3-0.3c3.6-3.8 8-6.6 12.9-8.3L215 344.6c-4.5-0.7-8.6-1.2-12.9-2.1-13.7-3-27.2-7.3-40.1-12.9-12.7-4.8-24.7-11.1-35.8-18.9-11.3-7.4-21.9-16-31.5-25.5-7.6-8-7.6-20.6 0-28.7 7.3-7.9 19.7-8.4 27.6-1.1 0.4 0.3 0.7 0.7 1.1 1.1 7.9 7.5 16.3 14.4 25.1 20.8 9.2 6 18.8 11.3 28.9 15.7 10.5 4.2 21.2 7.4 32.2 9.8 22.5 4.5 45.6 4.5 68 0 11.1-2.4 21.9-5.7 32.5-9.8 20.1-8.7 38.4-21.1 54-36.5l0.4-0.5c9.4-9.6 19.8-18.2 31-25.5 11.1-7.5 22.9-13.8 35.3-18.9 12.8-5.8 26.3-9.9 40.1-12.4l7.9-1.9v-63.7c0.2-18.7 15.3-33.9 34.1-33.9 18.6 0.2 33.6 15.3 33.5 33.9v63.7l8.1 1.9c13.8 2.4 27.3 6.6 40.1 12.4 12.5 5.1 24.5 11.4 35.8 18.9 11.2 7.6 21.6 16.3 31 26 8 7.5 16.4 14.4 25.4 20.8 9.2 5.9 18.9 11.2 28.9 15.7 10.4 4.2 21.2 7.4 32.2 9.8 11.2 2.2 22.6 3.3 34 3.4 11.4 0 22.7-1.1 33.9-3.4 11.1-2.4 21.9-5.6 32.5-9.8 20.2-8.6 38.5-21 54-36.5 7.4-7.9 19.7-8.4 27.7-1 0.4 0.3 0.7 0.7 1 1 7.6 8 7.6 20.6 0 28.7-19.3 19-42.1 34-67.1 44.4-13 5.5-26.4 9.8-40.1 12.9-4.1 1-8.4 1.4-13.2 2.1L897.8 609c17.6 6.5 26.6 26.1 20 43.7-1.6 4.4-4.1 8.3-7.3 11.7-16.6 16.9-36.4 30.2-58.3 39.4-43.9 17.8-93 17.8-136.8 0l-1.7-0.9c-21.2-8.9-40.5-22-56.6-38.5-13-12.8-13.1-33.7-0.3-46.7l0.3-0.3c3.5-3.7 7.8-6.5 12.6-8.3L756.6 345c-5.8-1-11-1.7-16.3-2.8-13.7-3.1-27.1-7.4-40.1-12.9-12.7-4.8-24.7-11.2-35.8-18.9-11.2-7.4-21.6-16-31-25.5-8-7.9-16.7-15-25.9-21.5-9.1-6-18.7-11.2-28.7-15.5-10.4-4.5-21.3-7.9-32.4-10.3v550.5H666c9.5 0 18.6 3.8 25.2 10.5 6.9 6.6 10.7 15.8 10.5 25.3v37.3h78.4c18.5 0.5 33.1 16 32.6 34.5-0.5 17.8-14.8 32.1-32.6 32.6l-534-0.1z m613.1-307.5l-75.3-230-75.1 229.9c9.3 8.3 19.7 15.2 31 20.5l1.5 0.2c13.5 5.5 28.1 8.4 42.7 8.3 14.7 0.2 29.2-2.6 42.8-8.3h0.5c11.9-5 22.8-12 32.2-20.8l-0.3 0.2z m-541.8 0l-75-230-75.5 230c9.2 8.5 19.7 15.5 31.1 20.5l1.4 0.2c27.3 11.2 58 11.2 85.3 0h0.2c12.1-4.9 23.1-11.9 32.5-20.7z m46.8 240.4h297.5v-32.3H364.3v32.4l-0.1-0.1z" fill="#2c2c2c" p-id="3081"></path></svg>