<?xml version="1.0" standalone="no"?><!DOCTYPE svg PUBLIC "-//W3C//DTD SVG 1.1//EN" "http://www.w3.org/Graphics/SVG/1.1/DTD/svg11.dtd"><svg t="1743256876963" class="icon" viewBox="0 0 1024 1024" version="1.1" xmlns="http://www.w3.org/2000/svg" p-id="5826" xmlns:xlink="http://www.w3.org/1999/xlink" width="200" height="200"><path d="M863.1 595.3C743.6 376.8 820.7 306.8 821.5 306c1.3-1.1 1.5-2.9 0.5-4.3-1.1-1.3-3.2-1.9-5-1.2-1.7 0.6-168 59.1-147.1 188.7-45.7-34.6-258.7-212.2-128.3-421 0.8-1.3 0.6-2.9-0.6-3.9-1.1-1.1-3-1.5-4.5-0.9-2.9 1-69.3 25-122.3 85.6-48.9 55.8-94.4 154.5-33.1 307.3 22.3 71.9-19.7 130.2-42.3 154.9 5.6-17.1 12.5-46 11.3-79.1-1.8-48.5-22.5-115.6-111.1-159-1.4-0.7-3.1-0.6-4.4 0.2-1.4 0.9-2 2.2-1.5 3.6 0.3 1.3 33.4 128.9-24.7 188-50.2 51-99.4 139.7-72.8 221.8 22.3 68.7 92 121.1 207.2 155.8 29.5 7.7 57.8 13.5 89 18.4 2 0.4 4-0.7 4.7-2.3 0.6-1.8-0.4-3.6-2.3-4.3-59.3-21.6-120.2-66.7-74.9-158.3 43.2-78.9 35.5-119.6 26.8-137.1 22.3 10.6 66.6 38.2 55.6 86.6-0.3 1.4 0.5 2.9 1.9 3.6 1.5 0.8 3.3 0.7 4.7-0.3 1.4-0.9 134.7-93.5 74.1-206.9 29.8 14.6 109 65.4 62.3 182-15.6 50.2 26.8 86.2 28.6 87.8 1.4 1.1 3.5 1.4 5.2 0.4 1.6-0.8 2.2-2.6 1.5-4.1-1.4-3.1-32.9-74.9 35.5-114.6-3.6 18.4-9.4 64 15.1 88.9 22 22.4 43.3 59.1 36.8 94.9-4.5 25.2-22.2 46.4-52.6 63.1-1.7 1-2.4 2.8-1.5 4.4 0.8 1.6 3 2.3 5 1.8 75.2-21 173.8-62.7 216.8-142.2 31.7-58.7 27.7-129-12-209m0 0" p-id="5827"></path></svg>