<?xml version="1.0" standalone="no"?><!DOCTYPE svg PUBLIC "-//W3C//DTD SVG 1.1//EN" "http://www.w3.org/Graphics/SVG/1.1/DTD/svg11.dtd"><svg height="1500" node-id="1" sillyvg="true" template-height="1500" template-width="1734" version="1.1" viewBox="0 0 1734 1500" width="1734" xmlns="http://www.w3.org/2000/svg" xmlns:xlink="http://www.w3.org/1999/xlink"><defs node-id="67"><linearGradient gradientUnits="objectBoundingBox" id="未命名的渐变_17" node-id="5" spreadMethod="pad" x1="-293.8" x2="-291.22" y1="3793.68" y2="3793.68"><stop offset="0" stop-color="#eaeff5"></stop><stop offset="0.99" stop-color="#dee1f0"></stop></linearGradient><linearGradient gradientUnits="objectBoundingBox" id="未命名的渐变_94" node-id="8" spreadMethod="pad" x1="417.12" x2="1308.48" y1="753.65" y2="753.65"><stop offset="0" stop-color="#ebf4ff"></stop><stop offset="1" stop-color="#ebe1ff"></stop></linearGradient><linearGradient gradientUnits="objectBoundingBox" id="未命名的渐变_49" node-id="11" spreadMethod="pad" x1="989.12" x2="1349.12" y1="789" y2="789"><stop offset="0" stop-color="#ebf4ff"></stop><stop offset="1" stop-color="#ebebff"></stop></linearGradient><linearGradient gradientUnits="objectBoundingBox" id="未命名的渐变_23" node-id="14" spreadMethod="pad" x1="-316.57" x2="-314.01" y1="3800.45" y2="3800.45"><stop offset="0" stop-color="#548fff"></stop><stop offset="1" stop-color="#949fff"></stop></linearGradient></defs><path d="M 1592.60 1276.00 L 314.60 1276.00 L 311.50 1275.80 L 305.90 1274.20 L 303.30 1272.90 L 298.70 1269.40 L 295.20 1264.80 L 293.90 1262.30 L 292.40 1256.60 L 292.10 1253.50 L 292.40 1250.40 L 293.90 1244.70 L 295.20 1242.20 L 298.70 1237.60 L 303.30 1234.10 L 305.90 1232.80 L 311.50 1231.20 L 314.60 1231.00 L 1592.60 1231.00 L 1595.70 1231.20 L 1598.60 1231.80 L 1601.40 1232.80 L 1604.00 1234.10 L 1608.50 1237.60 L 1612.00 1242.20 L 1613.30 1244.70 L 1614.90 1250.40 L 1615.10 1253.50 L 1614.90 1256.60 L 1613.30 1262.30 L 1612.00 1264.80 L 1608.50 1269.40 L 1604.00 1272.90 L 1601.40 1274.20 L 1595.70 1275.80 L 1592.60 1276.00 Z" fill="none" node-id="95" stroke="#d3dcf4" stroke-linecap="butt" stroke-width="20" target-height="45" target-width="1323" target-x="292.1" target-y="1231"></path><path d="M 1228.10 1317.00 L 1303.00 1317.00 L 1350.40 1316.50 L 1362.30 1316.90 L 1374.00 1317.90 L 1381.70 1318.70 L 1389.60 1320.20 L 1393.30 1321.40 L 1396.80 1322.90 L 1398.80 1324.20 L 1400.10 1325.60 L 1401.00 1327.00 L 1401.50 1328.50 L 1401.50 1331.90 L 1400.90 1334.60 L 1394.80 1349.50 L 1393.70 1353.60 L 1393.00 1357.80 L 1393.00 1362.30 L 1393.50 1365.50 L 1394.50 1368.10 L 1395.90 1370.30 L 1397.60 1372.20 L 1399.70 1373.80 L 1402.20 1375.20 L 1406.10 1376.80 L 1410.50 1377.90 L 1423.60 1379.90 L 1440.20 1380.90 L 1450.20 1380.80 L 1490.10 1379.00 L 1492.30 1378.70 L 1494.20 1378.00 L 1495.70 1377.00 L 1497.80 1374.10 L 1498.70 1370.60 L 1498.40 1367.10 L 1497.80 1365.40 L 1495.70 1362.70 L 1494.20 1361.80 L 1492.40 1361.20 L 1490.10 1361.00 L 1454.10 1362.60 L 1434.20 1362.60 L 1418.30 1361.10 L 1408.10 1358.00 L 1410.60 1360.90 L 1411.10 1361.80 L 1411.00 1362.30 L 1411.20 1357.20 L 1411.90 1354.40 L 1418.10 1339.50 L 1419.20 1335.70 L 1419.80 1331.60 L 1419.80 1327.40 L 1419.20 1323.70 L 1418.10 1320.40 L 1416.50 1317.40 L 1414.60 1314.70 L 1412.20 1312.20 L 1406.60 1308.20 L 1403.30 1306.60 L 1398.30 1304.50 L 1393.00 1302.90 L 1382.40 1300.90 L 1370.70 1299.70 L 1358.90 1299.00 L 1347.20 1298.80 L 1228.10 1299.00 L 1225.80 1299.30 L 1224.00 1299.90 L 1222.50 1300.90 L 1221.30 1302.20 L 1219.80 1305.30 L 1219.40 1308.90 L 1220.40 1312.30 L 1221.30 1313.80 L 1222.50 1315.10 L 1224.00 1316.10 L 1225.80 1316.70 L 1228.10 1317.00 Z" fill="#d3dcf4" fill-rule="nonzero" node-id="97" stroke="none" target-height="82.099976" target-width="279.29993" target-x="1219.4" target-y="1298.8"></path><path d="M 480.10 1325.00 L 740.10 1325.00 L 742.40 1324.70 L 744.20 1324.10 L 745.70 1323.10 L 746.90 1321.80 L 748.50 1318.70 L 748.80 1315.10 L 747.80 1311.70 L 745.70 1308.90 L 744.20 1307.90 L 742.40 1307.30 L 740.10 1307.00 L 480.10 1307.00 L 477.90 1307.30 L 476.00 1307.90 L 473.30 1310.20 L 471.80 1313.30 L 471.50 1316.90 L 472.40 1320.30 L 474.60 1323.10 L 476.00 1324.10 L 477.90 1324.70 L 480.10 1325.00 Z" fill="#d3dcf4" fill-rule="nonzero" node-id="99" stroke="none" target-height="18" target-width="277.3" target-x="471.5" target-y="1307"></path><g node-id="191"><g node-id="200"><path d="M 1271.80 829.10 L 1239.00 810.20 L 1238.00 809.40 L 1237.40 807.50 L 1238.40 805.60 L 1239.70 804.70 L 1270.80 786.70 L 1274.10 785.50 L 1277.50 785.40 L 1279.20 785.70 L 1313.30 805.20 L 1314.30 806.00 L 1314.80 806.90 L 1314.90 807.90 L 1313.90 809.80 L 1312.60 810.70 L 1281.40 828.70 L 1279.90 829.40 L 1276.50 830.10 L 1273.20 829.70 L 1271.80 829.10 Z" fill="#c9cfe5" fill-opacity="0.3" fill-rule="nonzero" group-id="1,10" id="路径" node-id="24" stroke="none" target-height="44.69995" target-width="77.5" target-x="1237.4" target-y="785.4"></path></g><path d="M 1315.00 792.10 L 1315.00 448.80 L 1237.40 448.80 L 1237.60 792.90 L 1239.10 794.60 L 1271.90 813.50 L 1274.80 814.40 L 1276.50 814.40 L 1279.20 814.00 L 1281.50 813.10 L 1312.60 795.10 L 1313.70 794.40 L 1315.00 792.20 Z" fill="url(#未命名的渐变_17)" fill-rule="nonzero" group-id="1" id="路径-2" node-id="25" stroke="none" target-height="365.60004" target-width="77.599976" target-x="1237.4" target-y="448.8"></path><path d="M 1271.80 470.40 L 1239.00 451.40 L 1238.00 450.60 L 1237.50 449.70 L 1237.40 448.70 L 1238.40 446.90 L 1239.70 445.90 L 1270.80 427.90 L 1274.10 426.70 L 1277.50 426.60 L 1279.20 426.90 L 1313.30 446.40 L 1314.30 447.30 L 1314.80 448.10 L 1314.90 449.10 L 1313.90 451.00 L 1312.60 451.90 L 1281.40 469.90 L 1279.10 470.90 L 1276.50 471.30 L 1274.70 471.20 L 1271.80 470.40 Z" fill="#fafbfd" fill-rule="nonzero" group-id="1" id="路径-3" node-id="26" stroke="none" target-height="44.69998" target-width="77.5" target-x="1237.4" target-y="426.6"></path></g><g node-id="192"><path d="M 605.10 1185.00 L 609.20 1176.90 L 615.20 1162.80 L 618.80 1153.30 L 622.10 1143.00 L 627.50 1122.80 L 630.90 1104.40 L 632.10 1094.90 L 632.90 1084.90 L 633.40 1074.50 L 633.40 1064.00 L 632.80 1053.20 L 631.60 1042.00 L 630.40 1033.70 L 626.60 1016.70 L 624.10 1008.00 L 613.90 976.30 L 601.10 937.60 L 570.10 847.20 L 553.00 799.60 L 535.80 752.90 L 519.00 709.10 L 510.80 688.60 L 495.60 653.00 L 488.90 638.50 L 482.30 625.20 L 465.80 596.40 L 455.20 577.20 L 445.10 557.70 L 435.30 538.00 L 426.00 518.10 L 417.10 498.00 L 1135.50 322.30 L 1180.60 444.80 L 1211.70 531.80 L 1227.20 575.90 L 1241.60 618.00 L 1254.10 656.00 L 1264.10 688.30 L 1270.90 712.80 L 1278.70 745.90 L 1287.30 783.80 L 1295.60 824.30 L 1299.30 845.00 L 1302.50 865.40 L 1304.40 879.00 L 1307.10 905.00 L 1308.00 917.70 L 1308.40 929.70 L 1308.40 940.90 L 1307.50 957.20 L 1305.40 971.10 L 1303.80 977.80 L 1301.90 983.80 L 1299.70 989.00 L 1297.20 993.50 L 1295.50 995.60 L 1292.80 998.00 L 1288.80 1000.90 L 1283.10 1004.20 L 1275.70 1008.00 L 1266.20 1012.30 L 1254.50 1017.10 L 1236.10 1024.00 L 1213.70 1031.70 L 1189.90 1039.30 L 1162.80 1047.50 L 1104.40 1064.30 L 1073.30 1072.70 L 1007.50 1090.00 L 906.10 1115.40 L 777.90 1145.90 L 674.20 1169.60 L 605.10 1185.00 Z" fill="url(#未命名的渐变_94)" fill-rule="nonzero" group-id="2" node-id="110" stroke="#5d83ff" stroke-linecap="butt" stroke-width="18" target-height="862.7" target-width="891.30005" target-x="417.1" target-y="322.3"></path></g><g node-id="193"><path d="M 1240.60 272.50 L 1259.60 176.50 L 1308.60 203.50 L 1240.60 276.50" fill="#d3dcf4" fill-rule="nonzero" group-id="3" node-id="114" stroke="none" target-height="100" target-width="68" target-x="1240.6" target-y="176.5"></path><path d="M 1253.60 286.50 L 1412.60 243.50 L 1422.60 303.50 L 1253.60 286.50 Z" fill="#d3dcf4" fill-rule="nonzero" group-id="3" node-id="116" stroke="none" target-height="60" target-width="169" target-x="1253.6" target-y="243.5"></path></g><g node-id="194"><path d="M 304.30 712.00 L 283.20 720.40 L 272.90 725.10 L 262.70 730.20 L 249.60 737.70 L 236.40 746.70 L 229.80 752.20 L 225.60 756.00 L 218.00 764.40 L 214.60 769.00 L 211.70 773.70 L 209.20 778.70 L 207.20 783.90 L 205.70 789.40 L 204.80 795.10 L 204.50 800.20 L 204.80 805.00 L 205.50 809.80 L 206.70 814.50 L 208.30 819.00 L 210.40 823.20 L 212.90 827.30 L 215.80 830.90 L 219.20 834.30 L 222.90 837.30 L 227.00 839.90 L 231.60 842.10 L 236.30 843.70 L 246.10 845.90 L 251.10 846.50 L 257.90 846.70 L 264.60 846.50 L 271.40 845.90 L 281.60 844.30 L 291.20 842.30 L 301.60 839.70 L 311.80 836.60 L 322.10 832.90 L 332.10 828.80 L 341.80 824.10 L 351.10 818.90 L 352.80 817.00 L 353.20 816.00 L 353.10 814.30 L 352.50 812.80 L 351.50 811.50 L 350.10 810.60 L 347.80 810.60 L 331.70 819.00 L 324.00 822.40 L 316.10 825.40 L 300.20 830.60 L 291.20 833.10 L 275.60 836.40 L 262.90 837.60 L 256.60 837.70 L 250.30 837.30 L 244.10 836.40 L 239.80 835.30 L 235.80 833.90 L 232.10 832.20 L 228.70 830.20 L 225.60 827.80 L 222.80 825.10 L 220.30 822.10 L 218.20 818.80 L 216.50 815.30 L 215.10 811.40 L 214.20 807.30 L 213.60 802.80 L 213.60 797.40 L 214.30 792.30 L 215.50 787.50 L 217.30 782.80 L 219.50 778.30 L 222.20 773.90 L 228.50 765.90 L 232.10 762.20 L 237.90 757.00 L 243.90 752.30 L 256.90 743.70 L 263.70 739.80 L 274.20 734.40 L 284.90 729.50 L 307.90 720.00 L 309.30 718.20 L 309.70 716.50 L 309.50 714.80 L 308.80 713.30 L 307.70 712.20 L 305.60 711.70 L 304.30 712.00 Z" fill="#d3dcf4" fill-rule="nonzero" group-id="4" node-id="120" stroke="none" target-height="135" target-width="148.70001" target-x="204.5" target-y="711.7"></path><path d="M 344.70 817.80 L 349.00 823.50 L 353.60 828.60 L 358.40 833.20 L 363.50 837.20 L 368.90 840.70 L 374.50 843.80 L 380.50 846.40 L 386.70 848.70 L 393.30 850.60 L 400.30 852.00 L 402.80 851.80 L 403.80 851.20 L 405.00 850.00 L 405.70 848.40 L 405.90 846.80 L 405.50 845.30 L 404.00 843.80 L 402.70 843.30 L 395.80 841.90 L 389.30 840.10 L 383.10 837.80 L 377.20 835.10 L 371.60 831.90 L 366.30 828.10 L 362.60 825.00 L 355.70 817.50 L 352.50 813.20 L 350.60 811.60 L 347.80 811.30 L 346.20 811.90 L 344.90 813.00 L 344.10 814.40 L 343.90 815.40 L 344.70 817.80 Z" fill="#d3dcf4" fill-rule="nonzero" group-id="4" node-id="122" stroke="none" target-height="40.700012" target-width="62" target-x="343.9" target-y="811.3"></path><path d="M 388.10 791.50 L 387.70 797.90 L 387.60 804.20 L 388.80 816.50 L 391.20 828.70 L 396.40 846.90 L 397.80 849.00 L 398.80 849.60 L 400.40 850.00 L 402.10 849.80 L 403.60 849.10 L 404.80 848.00 L 405.20 847.00 L 405.10 844.50 L 400.10 827.10 L 397.80 815.40 L 396.60 803.70 L 397.10 790.10 L 396.10 788.20 L 394.80 787.40 L 393.10 787.20 L 391.40 787.40 L 389.90 788.30 L 388.50 790.10 L 388.10 791.50 Z" fill="#d3dcf4" fill-rule="nonzero" group-id="4" node-id="124" stroke="none" target-height="62.799988" target-width="17.600006" target-x="387.6" target-y="787.2"></path><path d="M 306.80 720.80 L 318.50 717.20 L 330.30 714.00 L 346.30 710.60 L 361.30 708.70 L 368.40 708.30 L 375.40 708.30 L 382.50 708.90 L 387.10 709.60 L 396.10 712.10 L 403.10 715.20 L 406.40 717.20 L 412.50 721.90 L 417.60 727.60 L 419.70 730.90 L 421.30 734.30 L 422.50 737.80 L 423.20 741.30 L 423.50 744.90 L 423.50 748.50 L 422.80 753.30 L 421.40 757.90 L 419.50 762.40 L 417.30 766.30 L 414.80 769.80 L 412.00 773.10 L 405.60 779.00 L 402.10 781.50 L 396.50 784.90 L 390.50 787.80 L 388.60 789.30 L 388.20 790.30 L 388.20 791.80 L 388.80 793.40 L 389.90 794.70 L 391.40 795.60 L 393.70 795.90 L 395.10 795.60 L 400.60 792.90 L 406.00 789.70 L 411.10 785.90 L 415.90 781.80 L 420.20 777.20 L 424.00 772.30 L 426.40 768.40 L 428.50 764.30 L 430.20 760.00 L 431.50 755.60 L 432.30 751.10 L 432.60 746.50 L 432.30 741.80 L 431.50 736.90 L 430.30 732.50 L 428.70 728.50 L 426.80 724.90 L 424.60 721.60 L 421.10 717.50 L 417.20 713.80 L 412.80 710.60 L 408.10 707.90 L 403.20 705.60 L 397.90 703.60 L 392.50 702.10 L 381.40 700.10 L 375.80 699.60 L 365.10 699.50 L 354.70 700.30 L 344.50 701.80 L 334.30 703.80 L 324.20 706.20 L 304.40 712.20 L 303.20 712.80 L 301.70 714.50 L 301.30 716.20 L 301.50 717.90 L 302.20 719.40 L 303.30 720.50 L 305.40 721.10 L 306.80 720.80 Z" fill="#d3dcf4" fill-rule="nonzero" group-id="4" node-id="126" stroke="none" target-height="96.400024" target-width="131.30002" target-x="301.3" target-y="699.5"></path><path d="M 272.10 781.30 L 266.80 781.90 L 264.50 782.70 L 262.30 783.80 L 260.30 785.40 L 258.50 787.40 L 257.20 789.50 L 256.20 791.80 L 255.70 794.10 L 255.60 796.50 L 255.90 798.90 L 256.50 801.30 L 258.90 805.60 L 262.30 809.00 L 264.40 810.20 L 266.80 811.00 L 269.20 811.50 L 271.60 811.50 L 276.20 810.80 L 280.60 808.80 L 282.50 807.20 L 284.00 805.40 L 285.20 803.30 L 286.50 798.70 L 286.40 793.70 L 285.80 791.40 L 283.60 787.10 L 282.00 785.30 L 280.10 783.80 L 276.30 782.30 L 274.20 782.00 L 271.10 782.10 L 268.10 782.70 L 264.50 784.50 L 263.00 785.80 L 260.80 788.90 L 259.80 792.70 L 259.80 794.70 L 260.10 796.70 L 261.10 799.00 L 262.50 800.80 L 264.40 802.10 L 266.50 803.00 L 268.80 803.30 L 271.20 803.00 L 273.40 802.00 L 275.20 800.60 L 276.50 798.70 L 277.40 796.60 L 277.80 794.30 L 277.50 791.90 L 277.70 793.60 L 276.90 796.70 L 274.90 799.10 L 272.70 800.00 L 273.20 800.00 L 272.10 799.90 L 270.50 799.10 L 269.10 797.70 L 268.60 796.10 L 268.50 797.30 L 269.60 794.70 L 271.40 793.50 L 270.50 793.70 L 271.40 793.70 L 271.00 793.50 L 272.50 794.20 L 273.60 795.40 L 273.20 795.10 L 273.50 795.80 L 273.50 795.20 L 273.60 796.40 L 272.30 798.80 L 272.50 798.30 L 271.10 799.20 L 270.40 799.30 L 274.40 799.00 L 276.60 798.10 L 278.50 796.70 L 279.90 794.80 L 281.00 791.90 L 281.10 790.30 L 280.80 787.90 L 279.80 785.80 L 278.40 784.00 L 276.60 782.60 L 274.50 781.70 L 272.10 781.30 Z" fill="#d3dcf4" fill-rule="nonzero" group-id="4" node-id="128" stroke="none" target-height="30.200012" target-width="30.899994" target-x="255.6" target-y="781.3"></path><path d="M 320.80 757.30 L 315.60 757.80 L 313.10 758.50 L 310.90 759.60 L 308.90 761.20 L 307.20 763.30 L 306.10 765.50 L 305.00 770.30 L 305.30 775.20 L 306.00 777.50 L 307.20 780.30 L 308.80 782.60 L 310.90 784.60 L 313.30 786.20 L 315.90 787.30 L 318.80 787.90 L 321.80 787.90 L 324.60 787.40 L 327.30 786.30 L 329.70 784.80 L 331.80 782.80 L 333.60 780.40 L 335.20 775.90 L 335.40 773.70 L 334.90 769.10 L 333.20 765.00 L 331.90 763.20 L 328.50 760.20 L 326.50 759.20 L 324.10 758.50 L 319.60 758.30 L 315.20 759.10 L 313.20 759.90 L 309.70 762.40 L 308.40 764.00 L 307.40 765.80 L 306.80 767.80 L 306.60 770.00 L 306.80 772.60 L 307.70 774.80 L 309.10 776.60 L 310.90 778.00 L 313.10 778.90 L 316.10 779.20 L 318.40 778.90 L 320.60 778.10 L 322.40 776.80 L 324.30 774.30 L 324.80 772.70 L 325.00 770.50 L 324.70 768.10 L 323.90 765.90 L 322.60 764.00 L 321.40 762.90 L 320.10 762.20 L 317.90 761.60 L 324.20 767.90 L 324.40 770.20 L 324.00 772.40 L 323.30 773.80 L 321.10 775.90 L 320.00 776.20 L 321.10 776.00 L 320.00 776.20 L 321.30 776.20 L 320.20 776.10 L 318.70 775.10 L 317.40 773.00 L 317.20 771.60 L 317.10 773.50 L 318.30 770.90 L 319.00 770.30 L 321.40 770.20 L 322.90 771.60 L 322.70 771.10 L 323.00 771.90 L 322.80 771.00 L 323.00 772.10 L 323.00 770.80 L 322.90 771.80 L 322.30 773.00 L 320.40 774.80 L 318.40 775.30 L 323.10 774.90 L 325.30 774.00 L 327.10 772.60 L 328.60 770.70 L 329.70 767.90 L 329.80 766.30 L 329.40 763.90 L 328.50 761.70 L 327.10 759.90 L 325.30 758.50 L 323.20 757.60 L 320.80 757.20 Z" fill="#d3dcf4" fill-rule="nonzero" group-id="4" node-id="130" stroke="none" target-height="30.700012" target-width="30.399994" target-x="305" target-y="757.2"></path><path d="M 372.50 742.60 L 369.30 740.30 L 367.60 739.60 L 364.90 739.20 L 362.10 739.20 L 359.30 739.90 L 356.60 740.90 L 352.70 743.60 L 349.80 747.20 L 348.20 751.60 L 347.80 754.70 L 347.90 757.50 L 348.60 760.30 L 349.60 762.10 L 352.40 765.30 L 354.30 766.60 L 358.90 768.30 L 363.80 768.70 L 368.60 767.90 L 371.00 766.80 L 373.20 765.50 L 376.90 762.10 L 379.30 758.00 L 380.00 755.70 L 380.30 751.00 L 379.90 748.60 L 379.00 746.20 L 377.60 743.80 L 375.60 741.40 L 373.50 739.60 L 371.00 738.30 L 369.10 737.60 L 364.90 737.30 L 362.60 737.80 L 359.90 738.80 L 357.50 740.20 L 355.40 742.00 L 353.80 744.20 L 353.00 745.80 L 352.50 749.60 L 352.70 751.60 L 353.30 753.40 L 355.70 756.40 L 357.20 757.50 L 359.10 758.30 L 362.80 758.70 L 365.10 758.20 L 367.20 757.30 L 369.10 756.00 L 370.60 754.20 L 371.60 751.40 L 371.80 749.70 L 371.40 747.40 L 370.40 745.20 L 369.00 743.30 L 367.30 741.80 L 365.90 741.10 L 362.80 740.70 L 363.90 740.90 L 370.40 749.20 L 368.90 753.40 L 367.50 755.30 L 366.70 755.30 L 368.00 755.20 L 365.00 754.70 L 362.60 753.80 L 362.90 754.10 L 362.50 753.30 L 362.60 751.80 L 363.20 750.60 L 362.80 751.10 L 363.50 750.50 L 362.80 750.70 L 363.80 750.50 L 362.60 750.80 L 363.10 750.70 L 363.70 750.90 L 362.30 750.50 L 362.80 750.70 L 365.70 755.50 L 365.40 756.00 L 365.80 755.80 L 364.00 757.10 L 365.00 756.70 L 363.40 756.90 L 362.10 756.70 L 359.80 755.30 L 361.70 756.70 L 363.80 757.50 L 366.10 757.70 L 368.30 757.40 L 370.40 756.50 L 372.30 755.10 L 373.70 753.20 L 374.60 751.10 L 374.90 748.90 L 374.70 746.60 L 373.90 744.50 L 372.50 742.60 Z" fill="#d3dcf4" fill-rule="nonzero" group-id="4" node-id="132" stroke="none" target-height="31.400024" target-width="32.5" target-x="347.8" target-y="737.3"></path></g><g node-id="195"><path d="M 742.10 612.00 L 741.90 616.40 L 741.30 620.50 L 740.20 624.50 L 738.80 628.30 L 734.90 635.50 L 729.80 641.70 L 723.60 646.80 L 716.50 650.70 L 712.60 652.10 L 708.60 653.10 L 704.50 653.80 L 700.10 654.00 L 695.80 653.80 L 691.60 653.10 L 687.60 652.10 L 680.10 648.90 L 673.40 644.40 L 667.70 638.70 L 663.20 632.00 L 661.40 628.30 L 660.00 624.50 L 659.00 620.50 L 658.40 616.40 L 658.10 612.00 L 658.40 607.60 L 659.00 603.50 L 660.00 599.50 L 663.20 592.00 L 667.70 585.30 L 673.40 579.60 L 676.60 577.20 L 683.80 573.30 L 687.60 571.90 L 691.60 570.90 L 695.80 570.20 L 700.10 570.00 L 704.50 570.20 L 708.60 570.90 L 712.60 571.90 L 716.50 573.30 L 723.60 577.20 L 729.80 582.30 L 734.90 588.50 L 738.80 595.70 L 740.20 599.50 L 741.30 603.50 L 741.90 607.60 L 742.10 612.00 Z" fill="#fe9f39" fill-rule="nonzero" group-id="5" node-id="136" stroke="none" target-height="84" target-width="84" target-x="658.1" target-y="570"></path><path d="M 801.10 759.00 L 800.90 763.40 L 800.30 767.50 L 799.20 771.50 L 797.80 775.30 L 793.90 782.50 L 788.80 788.70 L 782.60 793.80 L 775.50 797.70 L 771.60 799.10 L 767.60 800.10 L 763.50 800.80 L 759.10 801.00 L 754.80 800.80 L 750.60 800.10 L 746.60 799.10 L 742.80 797.70 L 739.10 795.90 L 732.40 791.40 L 726.70 785.70 L 722.20 779.00 L 719.00 771.50 L 718.00 767.50 L 717.40 763.40 L 717.10 759.00 L 717.40 754.60 L 718.00 750.50 L 719.00 746.50 L 722.20 739.00 L 726.70 732.30 L 732.40 726.60 L 735.60 724.20 L 742.80 720.30 L 746.60 718.90 L 750.60 717.90 L 754.80 717.20 L 759.10 717.00 L 763.50 717.20 L 767.60 717.90 L 771.60 718.90 L 775.50 720.30 L 782.60 724.20 L 788.80 729.30 L 793.90 735.50 L 797.80 742.70 L 799.20 746.50 L 800.30 750.50 L 800.90 754.60 L 801.10 759.00 Z" fill="#fe9f39" fill-rule="nonzero" group-id="5" node-id="138" stroke="none" target-height="84" target-width="84" target-x="717.1" target-y="717"></path><path d="M 855.10 907.00 L 854.90 911.40 L 854.30 915.50 L 853.20 919.50 L 851.80 923.30 L 847.90 930.50 L 842.80 936.70 L 836.60 941.80 L 829.50 945.70 L 825.60 947.10 L 821.60 948.10 L 817.50 948.80 L 813.10 949.00 L 808.80 948.80 L 804.60 948.10 L 800.60 947.10 L 793.10 943.90 L 786.40 939.40 L 780.70 933.70 L 776.20 927.00 L 774.40 923.30 L 773.00 919.50 L 772.00 915.50 L 771.40 911.40 L 771.10 907.00 L 771.40 902.60 L 772.00 898.50 L 773.00 894.50 L 776.20 887.00 L 780.70 880.30 L 786.40 874.60 L 789.60 872.20 L 796.80 868.30 L 800.60 866.90 L 804.60 865.90 L 808.80 865.20 L 813.10 865.00 L 817.50 865.20 L 821.60 865.90 L 825.60 866.90 L 829.50 868.30 L 836.60 872.20 L 842.80 877.30 L 847.90 883.50 L 851.80 890.70 L 853.20 894.50 L 854.30 898.50 L 854.90 902.60 L 855.10 907.00 Z" fill="#fe9f39" fill-rule="nonzero" group-id="5" node-id="140" stroke="none" target-height="84" target-width="84" target-x="771.1" target-y="865"></path><g node-id="201"><path d="M 815.20 541.20 L 1028.40 487.20 L 1032.50 486.40 L 1036.50 486.00 L 1040.40 486.00 L 1048.10 487.20 L 1055.30 489.80 L 1061.90 493.70 L 1067.60 498.80 L 1072.40 505.00 L 1075.80 512.20 L 1077.00 516.20 L 1078.20 524.20 L 1078.20 528.10 L 1077.00 535.80 L 1074.40 543.00 L 1070.50 549.70 L 1065.40 555.40 L 1059.20 560.10 L 1055.70 562.00 L 1052.00 563.50 L 1048.10 564.80 L 834.80 618.80 L 830.70 619.60 L 826.70 620.00 L 822.80 620.00 L 815.10 618.80 L 807.90 616.20 L 801.30 612.30 L 795.60 607.20 L 790.90 601.00 L 789.00 597.50 L 787.40 593.80 L 786.20 589.80 L 785.00 581.80 L 785.00 577.90 L 786.20 570.10 L 788.80 562.90 L 792.70 556.30 L 797.80 550.60 L 804.10 545.90 L 807.50 544.00 L 811.20 542.50 L 815.20 541.20 Z" fill="#5d83ff" fill-rule="nonzero" group-id="5,11" node-id="144" stroke="none" target-height="134" target-width="293.19995" target-x="785" target-y="486"></path></g><path d="M 1039.10 728.80 L 888.80 767.80 L 880.80 768.90 L 876.80 768.90 L 869.10 767.70 L 861.90 765.10 L 855.30 761.20 L 849.60 756.10 L 847.10 753.10 L 844.90 749.90 L 843.00 746.50 L 841.50 742.80 L 840.20 738.80 L 839.40 734.70 L 839.00 730.70 L 839.10 726.80 L 840.30 719.10 L 842.90 711.90 L 846.80 705.30 L 851.90 699.60 L 854.90 697.10 L 861.50 693.00 L 865.20 691.50 L 869.20 690.20 L 1019.40 651.20 L 1023.50 650.40 L 1027.50 650.00 L 1031.40 650.10 L 1039.10 651.30 L 1046.30 653.80 L 1052.90 657.80 L 1058.60 662.90 L 1061.10 665.90 L 1065.20 672.50 L 1066.80 676.20 L 1068.00 680.20 L 1069.20 688.20 L 1069.20 692.10 L 1068.00 699.80 L 1065.40 707.00 L 1061.50 713.60 L 1056.40 719.30 L 1050.20 724.10 L 1043.00 727.50 L 1039.10 728.80 Z" fill="#5d83ff" fill-rule="nonzero" group-id="5" node-id="147" stroke="none" target-height="118.900024" target-width="230.19995" target-x="839" target-y="650"></path><g node-id="202"><path d="M 922.20 836.20 L 1135.40 782.20 L 1139.50 781.40 L 1143.50 781.00 L 1147.40 781.00 L 1155.10 782.20 L 1162.30 784.80 L 1168.90 788.70 L 1174.60 793.80 L 1179.40 800.00 L 1181.20 803.50 L 1182.80 807.20 L 1184.00 811.10 L 1184.80 815.20 L 1185.20 819.20 L 1185.20 823.10 L 1184.00 830.80 L 1181.40 838.00 L 1177.50 844.70 L 1172.40 850.40 L 1166.20 855.10 L 1162.70 857.00 L 1159.10 858.50 L 1155.10 859.70 L 941.80 913.80 L 937.70 914.60 L 933.70 915.00 L 929.80 915.00 L 922.10 913.80 L 914.90 911.20 L 908.30 907.30 L 902.60 902.20 L 897.90 896.00 L 894.50 888.80 L 893.20 884.80 L 892.40 880.80 L 892.00 876.80 L 892.00 872.80 L 893.20 865.10 L 895.80 857.90 L 899.80 851.30 L 904.90 845.60 L 911.10 840.90 L 918.20 837.50 L 922.20 836.20 Z" fill="#5d83ff" fill-rule="nonzero" group-id="5,12" node-id="151" stroke="none" target-height="134" target-width="293.19995" target-x="892" target-y="781"></path></g></g><path d="M 445.00 507.20 L 1128.60 335.70 L 1130.70 334.90 L 1132.30 333.80 L 1133.50 332.50 L 1134.30 331.00 L 1135.00 327.50 L 1134.40 324.00 L 1132.50 320.90 L 1129.70 318.80 L 1128.00 318.20 L 1126.10 318.00 L 1123.80 318.30 L 440.20 489.80 L 438.10 490.60 L 436.50 491.70 L 435.30 493.00 L 434.50 494.50 L 433.80 498.00 L 434.50 501.50 L 436.30 504.60 L 439.10 506.70 L 440.80 507.30 L 442.80 507.50 L 445.00 507.20 Z" fill="#5d83ff" fill-rule="nonzero" node-id="155" stroke="none" target-height="189.5" target-width="701.2" target-x="433.8" target-y="318"></path><path d="M 430.70 324.30 L 1104.30 170.10 L 1106.40 169.30 L 1108.10 168.30 L 1109.20 167.00 L 1110.60 163.90 L 1110.80 162.10 L 1110.10 158.60 L 1109.30 157.00 L 1107.00 154.30 L 1103.70 152.70 L 1101.80 152.50 L 1099.50 152.70 L 425.90 306.90 L 423.80 307.70 L 422.20 308.70 L 421.00 310.00 L 420.10 311.50 L 419.50 314.90 L 420.10 318.40 L 421.90 321.50 L 424.80 323.70 L 426.50 324.30 L 428.50 324.50 L 430.70 324.30 Z" fill="#5d83ff" fill-rule="nonzero" node-id="157" stroke="none" target-height="172" target-width="691.30005" target-x="419.5" target-y="152.5"></path><path d="M 380.60 343.90 L 384.90 340.00 L 389.60 336.50 L 394.50 333.40 L 399.60 330.80 L 404.90 328.80 L 410.40 327.20 L 414.60 326.50 L 423.10 326.10 L 427.40 326.40 L 431.90 327.30 L 436.30 328.50 L 440.40 330.10 L 444.30 332.10 L 449.30 335.20 L 453.90 338.80 L 458.10 343.00 L 462.00 347.50 L 465.40 352.40 L 468.50 357.60 L 473.60 368.90 L 477.30 380.80 L 479.70 393.10 L 480.90 405.50 L 480.90 417.90 L 479.70 430.30 L 477.20 442.40 L 475.40 448.40 L 473.20 454.20 L 470.60 459.80 L 467.60 465.20 L 464.50 469.60 L 461.10 473.70 L 457.40 477.40 L 453.30 480.70 L 449.10 483.70 L 444.50 486.30 L 439.80 488.50 L 430.00 492.00 L 425.20 493.10 L 420.30 493.80 L 415.50 494.00 L 408.80 493.60 L 402.90 492.30 L 398.90 491.00 L 396.60 490.10 L 391.70 487.50 L 384.30 482.50 L 376.60 475.10 L 372.70 470.30 L 365.70 459.10 L 362.80 453.10 L 360.30 447.00 L 358.20 440.80 L 356.40 434.20 L 355.00 427.20 L 353.90 419.50 L 353.40 411.90 L 353.40 404.20 L 354.00 396.60 L 355.20 389.00 L 356.80 381.50 L 358.60 376.00 L 360.60 370.70 L 363.00 365.70 L 365.70 360.90 L 368.70 356.40 L 372.20 352.10 L 376.20 347.90 L 381.70 342.70 L 382.90 339.90 L 383.20 337.60 L 382.80 335.20 L 381.90 333.00 L 380.60 331.20 L 379.20 330.10 L 376.50 328.80 L 374.20 328.60 L 372.00 328.90 L 369.80 329.80 L 367.80 331.20 L 363.20 335.40 L 358.90 339.90 L 355.00 344.70 L 351.50 349.70 L 348.30 355.00 L 343.10 366.10 L 341.00 372.00 L 338.70 379.90 L 337.00 388.00 L 335.90 396.20 L 335.40 404.50 L 335.50 412.80 L 336.10 421.00 L 337.10 428.80 L 338.70 436.60 L 340.70 444.50 L 343.10 452.30 L 346.10 459.80 L 349.60 467.10 L 355.70 477.50 L 363.10 487.00 L 367.20 491.30 L 371.60 495.30 L 376.40 499.00 L 381.50 502.40 L 386.20 505.00 L 391.00 507.10 L 395.90 508.90 L 401.00 510.20 L 406.10 511.10 L 416.50 511.70 L 421.80 511.50 L 428.80 510.70 L 435.70 509.20 L 442.40 507.10 L 449.00 504.40 L 455.20 501.30 L 461.20 497.50 L 465.50 494.40 L 473.20 487.30 L 476.60 483.30 L 480.60 478.10 L 484.10 472.60 L 487.20 466.90 L 490.00 461.00 L 494.40 448.60 L 497.40 435.70 L 498.60 426.90 L 499.20 418.00 L 499.30 409.00 L 498.70 400.10 L 497.70 391.30 L 496.10 382.60 L 494.00 374.00 L 491.40 365.70 L 488.40 357.80 L 485.10 350.90 L 481.40 344.30 L 477.20 338.10 L 470.00 329.50 L 461.70 322.10 L 457.10 318.80 L 452.30 316.00 L 447.20 313.50 L 441.70 311.40 L 436.60 309.90 L 431.50 308.90 L 426.30 308.30 L 421.10 308.10 L 415.80 308.30 L 405.50 309.90 L 400.40 311.30 L 390.60 315.10 L 381.40 320.20 L 372.10 327.20 L 367.80 331.20 L 366.40 332.90 L 365.50 334.70 L 365.20 336.40 L 365.20 338.20 L 366.30 341.50 L 368.60 344.20 L 371.70 346.00 L 375.30 346.50 L 377.00 346.10 L 378.80 345.30 L 380.60 343.90 Z" fill="#5d83ff" fill-rule="nonzero" node-id="159" stroke="none" target-height="203.6" target-width="163.9" target-x="335.4" target-y="308.1"></path><path d="M 1101.60 170.50 L 1105.90 171.00 L 1114.40 173.30 L 1116.60 174.10 L 1122.60 177.20 L 1129.10 181.60 L 1133.40 185.40 L 1137.70 190.00 L 1141.70 195.00 L 1145.30 200.30 L 1148.50 205.90 L 1151.20 211.60 L 1153.50 217.30 L 1155.70 223.90 L 1157.50 230.50 L 1158.90 237.30 L 1159.80 244.10 L 1160.30 251.00 L 1160.40 257.90 L 1160.00 264.10 L 1159.30 270.30 L 1158.20 276.50 L 1156.60 282.50 L 1154.60 288.30 L 1152.10 293.70 L 1149.80 297.90 L 1147.00 301.80 L 1143.90 305.40 L 1139.10 309.70 L 1130.60 314.70 L 1124.20 316.70 L 1122.10 317.60 L 1120.50 318.60 L 1119.30 320.00 L 1118.00 323.20 L 1118.00 326.80 L 1119.20 330.10 L 1121.60 332.80 L 1123.10 333.70 L 1124.80 334.30 L 1126.70 334.40 L 1129.00 334.10 L 1134.90 332.20 L 1140.20 329.80 L 1145.20 327.00 L 1149.70 323.80 L 1154.00 320.20 L 1157.90 316.20 L 1161.40 311.90 L 1164.60 307.30 L 1167.40 302.40 L 1172.10 292.10 L 1173.90 286.60 L 1175.90 279.20 L 1177.20 271.60 L 1178.10 263.90 L 1178.40 256.10 L 1178.20 248.10 L 1177.50 240.10 L 1176.30 232.10 L 1174.60 224.20 L 1172.40 216.40 L 1169.70 208.80 L 1166.40 201.50 L 1162.70 194.30 L 1158.50 187.50 L 1153.80 181.10 L 1148.60 175.10 L 1144.40 170.90 L 1139.80 167.10 L 1135.00 163.70 L 1129.90 160.70 L 1124.60 158.10 L 1119.10 156.00 L 1113.40 154.30 L 1107.60 153.10 L 1101.60 152.40 L 1098.60 152.80 L 1097.20 153.50 L 1095.30 155.00 L 1093.90 156.90 L 1093.00 159.10 L 1092.60 161.40 L 1093.20 164.60 L 1095.30 167.70 L 1097.10 169.00 L 1099.30 170.00 L 1101.60 170.40 Z" fill="#5d83ff" fill-rule="nonzero" node-id="161" stroke="none" target-height="182" target-width="85.80005" target-x="1092.6" target-y="152.4"></path><path d="M 1282.00 1017.20 L 1285.80 1015.90 L 1289.30 1014.40 L 1292.50 1012.50 L 1295.30 1010.30 L 1298.80 1007.00 L 1301.80 1003.20 L 1304.50 999.00 L 1306.80 994.50 L 1310.40 984.80 L 1312.40 977.30 L 1313.80 969.70 L 1315.50 955.20 L 1316.30 941.30 L 1316.50 927.40 L 1316.00 913.40 L 1313.80 885.50 L 1312.10 871.60 L 1305.60 830.30 L 1300.60 802.90 L 1295.00 775.50 L 1288.90 748.20 L 1275.30 694.00 L 1267.90 667.10 L 1257.90 632.10 L 1247.30 597.20 L 1236.20 562.50 L 1224.60 528.00 L 1202.80 467.60 L 1182.60 415.70 L 1171.90 390.10 L 1160.80 364.60 L 1149.20 339.30 L 1141.40 323.00 L 1140.20 321.00 L 1138.80 319.70 L 1137.30 318.90 L 1135.70 318.50 L 1132.20 318.70 L 1129.10 320.20 L 1127.60 321.40 L 1125.60 324.30 L 1125.00 326.10 L 1124.80 327.90 L 1125.10 329.90 L 1125.80 332.00 L 1137.20 355.80 L 1148.00 379.80 L 1158.40 404.10 L 1178.10 453.00 L 1199.50 511.00 L 1211.20 544.60 L 1222.40 578.30 L 1233.10 612.30 L 1243.30 646.40 L 1251.00 673.30 L 1265.30 727.50 L 1271.90 754.80 L 1278.00 782.10 L 1287.60 830.90 L 1293.30 866.30 L 1296.60 894.80 L 1297.60 909.00 L 1298.20 923.50 L 1298.30 938.10 L 1297.90 949.80 L 1296.90 961.50 L 1294.40 974.70 L 1291.90 983.10 L 1290.90 985.90 L 1286.30 993.90 L 1286.80 993.20 L 1284.40 995.80 L 1282.40 997.40 L 1283.60 996.60 L 1281.00 998.30 L 1279.00 999.20 L 1280.20 998.90 L 1275.10 1000.70 L 1273.50 1001.80 L 1272.30 1003.10 L 1270.90 1006.30 L 1270.80 1008.10 L 1271.40 1011.60 L 1273.20 1014.70 L 1276.10 1016.80 L 1277.80 1017.40 L 1279.70 1017.50 L 1282.00 1017.20 Z" fill="#5d83ff" fill-rule="nonzero" node-id="163" stroke="none" target-height="699" target-width="191.69995" target-x="1124.8" target-y="318.5"></path><path d="M 414.90 507.00 L 426.90 531.00 L 450.20 579.30 L 480.30 644.60 L 498.30 685.40 L 510.00 712.70 L 532.60 767.70 L 544.60 798.30 L 556.30 829.10 L 567.50 860.10 L 575.50 883.50 L 583.20 907.00 L 590.50 930.60 L 597.40 954.30 L 603.20 975.70 L 611.70 1011.60 L 617.30 1040.50 L 619.50 1054.40 L 621.10 1067.60 L 622.80 1088.50 L 623.10 1100.10 L 622.60 1119.40 L 621.70 1128.90 L 619.80 1139.20 L 618.20 1145.90 L 614.80 1156.00 L 612.00 1161.90 L 606.50 1170.70 L 598.90 1178.30 L 593.80 1181.60 L 588.50 1184.50 L 582.10 1186.50 L 574.80 1188.10 L 569.20 1188.90 L 567.10 1189.80 L 565.30 1191.20 L 563.20 1194.20 L 562.60 1197.40 L 562.90 1199.70 L 563.80 1201.90 L 565.20 1203.80 L 567.10 1205.30 L 570.00 1206.40 L 577.50 1205.70 L 583.30 1204.60 L 589.10 1203.00 L 594.60 1201.10 L 599.90 1198.60 L 605.00 1195.70 L 609.80 1192.40 L 614.30 1188.50 L 618.50 1184.10 L 622.30 1179.20 L 625.70 1174.10 L 628.60 1168.80 L 631.20 1163.20 L 635.30 1151.70 L 638.10 1139.70 L 640.40 1121.90 L 641.00 1110.20 L 641.10 1098.40 L 640.70 1086.60 L 639.80 1074.80 L 636.70 1048.80 L 631.90 1020.50 L 627.40 999.40 L 622.50 978.40 L 616.90 957.00 L 610.90 935.80 L 604.50 914.60 L 590.80 872.60 L 572.20 820.50 L 560.50 789.60 L 548.80 760.10 L 524.60 701.50 L 505.70 657.80 L 473.50 586.80 L 447.20 531.70 L 430.40 497.90 L 429.10 496.00 L 427.70 494.70 L 426.20 493.90 L 424.50 493.40 L 421.10 493.70 L 417.90 495.20 L 415.30 497.80 L 413.90 501.10 L 413.70 502.90 L 414.00 504.80 L 414.80 507.00 Z" fill="#5d83ff" fill-rule="nonzero" node-id="165" stroke="none" target-height="713" target-width="227.39996" target-x="413.7" target-y="493.4"></path><path d="M 1280.90 1005.90 L 1280.70 1003.60 L 1281.00 1001.40 L 1281.80 999.40 L 1283.00 997.50 L 1284.30 996.40 L 1281.20 998.30 L 1269.50 1002.40 L 1248.20 1009.30 L 1166.30 1033.40 L 1105.60 1050.50 L 929.70 1098.80 L 784.70 1139.80 L 732.30 1153.70 L 706.00 1160.20 L 679.60 1166.30 L 653.00 1171.80 L 626.40 1176.90 L 596.20 1181.90 L 593.40 1183.10 L 592.20 1184.10 L 590.90 1186.10 L 590.00 1188.40 L 589.70 1190.70 L 590.00 1193.00 L 591.40 1195.90 L 594.20 1198.30 L 596.30 1199.10 L 598.60 1199.40 L 601.00 1199.30 L 628.40 1194.70 L 655.70 1189.60 L 682.90 1183.90 L 709.90 1177.70 L 763.80 1164.10 L 804.00 1153.20 L 919.50 1120.50 L 1102.00 1070.30 L 1164.20 1052.80 L 1248.90 1027.90 L 1278.30 1018.40 L 1290.60 1013.70 L 1293.20 1012.30 L 1295.50 1010.60 L 1296.70 1009.30 L 1297.50 1007.80 L 1298.50 1004.60 L 1298.50 1002.90 L 1297.80 999.60 L 1296.00 997.10 L 1294.10 995.80 L 1291.80 994.90 L 1289.50 994.60 L 1287.20 994.90 L 1284.30 996.30 L 1281.80 999.10 L 1281.00 1001.20 L 1280.70 1003.50 L 1280.90 1005.90 Z" fill="#5d83ff" fill-rule="nonzero" node-id="167" stroke="none" target-height="204.80005" target-width="708.8" target-x="589.7" target-y="994.6"></path><path d="M 490.60 1031.50 L 501.80 1032.00 L 513.10 1032.00 L 524.50 1031.50 L 535.90 1030.50 L 547.20 1029.00 L 558.50 1026.90 L 566.90 1024.90 L 583.20 1020.00 L 599.00 1013.60 L 606.60 1009.90 L 614.00 1005.80 L 621.20 1001.30 L 622.90 999.80 L 624.10 998.30 L 624.80 996.60 L 625.20 994.80 L 624.90 991.20 L 624.30 989.50 L 622.20 986.60 L 620.80 985.50 L 617.70 984.30 L 615.90 984.20 L 614.10 984.70 L 598.50 993.80 L 591.40 997.20 L 584.10 1000.40 L 574.20 1004.00 L 564.10 1007.00 L 553.70 1009.40 L 543.30 1011.40 L 532.80 1012.70 L 522.20 1013.60 L 511.60 1014.00 L 501.00 1014.00 L 490.60 1013.50 L 488.40 1013.60 L 486.50 1014.10 L 485.10 1015.00 L 482.90 1017.60 L 482.00 1021.00 L 482.30 1024.60 L 483.80 1027.90 L 485.10 1029.30 L 486.60 1030.30 L 488.40 1031.10 L 490.60 1031.50 Z" fill="#5d83ff" fill-rule="nonzero" node-id="169" stroke="none" target-height="47.799988" target-width="143.20001" target-x="482" target-y="984.2"></path><path d="M 483.30 1020.10 L 476.50 1027.70 L 470.20 1035.70 L 464.30 1044.30 L 456.60 1057.70 L 450.40 1071.80 L 447.80 1079.00 L 445.70 1086.40 L 444.20 1093.70 L 443.00 1101.20 L 442.40 1108.70 L 442.40 1116.20 L 442.90 1123.70 L 444.00 1131.10 L 445.30 1137.00 L 447.10 1142.80 L 449.30 1148.60 L 451.90 1154.40 L 455.10 1160.10 L 458.40 1165.30 L 462.10 1170.20 L 466.00 1174.70 L 470.10 1178.90 L 479.30 1186.40 L 489.30 1192.70 L 496.40 1196.30 L 503.70 1199.30 L 511.30 1201.90 L 519.10 1204.00 L 526.90 1205.60 L 534.90 1206.80 L 542.90 1207.50 L 550.80 1207.70 L 558.70 1207.50 L 568.30 1206.70 L 578.00 1205.30 L 590.80 1202.30 L 597.00 1200.20 L 603.00 1197.70 L 608.70 1194.70 L 614.20 1191.20 L 616.00 1189.60 L 617.40 1187.80 L 618.30 1185.70 L 618.60 1183.50 L 618.10 1180.50 L 617.40 1178.90 L 616.00 1177.10 L 614.10 1175.70 L 611.90 1174.80 L 609.50 1174.40 L 606.50 1174.90 L 596.30 1180.90 L 591.60 1182.90 L 586.80 1184.70 L 580.20 1186.50 L 573.50 1187.90 L 566.70 1188.90 L 558.20 1189.60 L 549.80 1189.70 L 541.40 1189.30 L 533.00 1188.30 L 524.70 1186.80 L 516.50 1184.70 L 506.00 1181.00 L 501.00 1178.60 L 496.10 1176.00 L 486.90 1169.80 L 482.70 1166.20 L 478.80 1162.30 L 475.20 1158.00 L 472.10 1153.60 L 467.00 1144.50 L 465.00 1139.60 L 462.90 1132.90 L 461.30 1126.10 L 460.40 1119.20 L 460.10 1112.20 L 460.40 1105.10 L 461.30 1098.10 L 463.10 1090.00 L 465.50 1082.00 L 468.40 1074.20 L 471.90 1066.70 L 475.90 1059.40 L 480.40 1052.30 L 485.20 1045.50 L 490.40 1039.00 L 496.00 1032.80 L 497.30 1031.00 L 498.20 1029.20 L 498.50 1027.50 L 498.00 1023.90 L 496.20 1020.80 L 493.50 1018.50 L 491.90 1017.80 L 488.40 1017.40 L 486.70 1017.80 L 485.00 1018.60 L 483.30 1020.10 Z" fill="#5d83ff" fill-rule="nonzero" node-id="171" stroke="none" target-height="190.29993" target-width="176.19998" target-x="442.4" target-y="1017.4"></path><g node-id="196"><path d="M 1400.20 980.70 L 1522.30 1144.30 L 1525.00 1148.40 L 1527.30 1152.70 L 1529.10 1157.00 L 1530.40 1161.50 L 1531.30 1166.10 L 1531.70 1170.70 L 1531.70 1175.30 L 1531.30 1179.90 L 1530.40 1184.40 L 1529.10 1188.80 L 1527.40 1193.00 L 1525.20 1197.20 L 1522.60 1201.10 L 1519.70 1204.80 L 1516.30 1208.20 L 1512.50 1211.40 L 1508.30 1214.10 L 1504.10 1216.40 L 1499.70 1218.20 L 1495.30 1219.50 L 1490.70 1220.40 L 1486.10 1220.80 L 1481.50 1220.80 L 1476.90 1220.40 L 1472.40 1219.50 L 1468.00 1218.20 L 1463.70 1216.50 L 1459.60 1214.30 L 1455.70 1211.80 L 1452.00 1208.80 L 1448.60 1205.40 L 1445.40 1201.60 L 1323.40 1038.00 L 1320.60 1033.80 L 1318.40 1029.60 L 1316.60 1025.20 L 1315.20 1020.80 L 1314.40 1016.20 L 1313.90 1011.60 L 1313.90 1007.00 L 1314.40 1002.40 L 1315.20 997.90 L 1316.60 993.50 L 1318.30 989.20 L 1320.40 985.10 L 1323.00 981.10 L 1325.90 977.50 L 1329.30 974.10 L 1333.20 970.90 L 1337.30 968.10 L 1341.50 965.90 L 1345.90 964.10 L 1350.40 962.70 L 1355.00 961.90 L 1359.60 961.40 L 1364.10 961.40 L 1368.70 961.90 L 1373.30 962.80 L 1377.60 964.10 L 1381.90 965.80 L 1386.10 967.90 L 1390.00 970.50 L 1393.60 973.40 L 1397.10 976.80 L 1400.20 980.70 Z" fill="#5d83ff" fill-rule="nonzero" group-id="6" node-id="175" stroke="none" target-height="259.40002" target-width="217.79993" target-x="1313.9" target-y="961.4"></path></g><g node-id="197"><path d="M 1405.00 944.80 L 1407.20 949.30 L 1409.00 953.90 L 1410.40 958.70 L 1411.20 963.50 L 1411.60 968.50 L 1411.50 973.50 L 1411.00 978.50 L 1410.00 983.60 L 1406.90 993.60 L 1404.70 998.60 L 1399.20 1008.20 L 1392.10 1017.30 L 1383.60 1025.70 L 1378.90 1029.60 L 1368.30 1036.60 L 1356.90 1042.20 L 1351.20 1044.30 L 1339.70 1047.40 L 1328.30 1049.00 L 1317.10 1048.90 L 1311.80 1048.30 L 1306.60 1047.30 L 1301.60 1046.00 L 1296.70 1044.20 L 1292.10 1042.10 L 1287.70 1039.70 L 1283.60 1036.90 L 1279.80 1033.70 L 1276.40 1030.10 L 1273.30 1026.30 L 1270.60 1022.00 L 1268.30 1017.50 L 1266.50 1012.80 L 1265.20 1008.10 L 1264.30 1003.20 L 1263.90 998.30 L 1264.00 993.30 L 1264.50 988.30 L 1265.50 983.10 L 1268.60 973.20 L 1270.80 968.20 L 1276.30 958.60 L 1283.40 949.50 L 1291.90 941.10 L 1296.60 937.20 L 1307.20 930.20 L 1318.60 924.60 L 1324.30 922.40 L 1335.80 919.30 L 1347.20 917.80 L 1352.80 917.60 L 1358.40 917.90 L 1363.70 918.50 L 1373.90 920.80 L 1378.80 922.60 L 1383.50 924.70 L 1387.80 927.10 L 1391.90 929.90 L 1395.70 933.10 L 1399.10 936.60 L 1402.20 940.50 L 1405.00 944.80 Z" fill="#fe9f39" fill-rule="nonzero" group-id="7" node-id="180" stroke="none" target-height="131.40002" target-width="147.69995" target-x="1263.9" target-y="917.6"></path></g><path d="M 1176.60 564.00 L 1165.80 564.30 L 1155.20 565.00 L 1144.80 566.20 L 1134.50 567.90 L 1124.50 570.00 L 1114.40 572.60 L 1104.60 575.60 L 1095.10 579.00 L 1085.70 582.90 L 1076.60 587.10 L 1067.60 591.80 L 1058.90 596.80 L 1050.50 602.20 L 1042.30 607.90 L 1034.30 614.00 L 1026.70 620.40 L 1019.30 627.20 L 1012.30 634.20 L 1005.50 641.50 L 999.10 649.20 L 993.00 657.10 L 987.30 665.30 L 981.90 673.80 L 976.90 682.50 L 972.20 691.50 L 968.00 700.60 L 964.20 710.00 L 960.70 719.50 L 957.70 729.30 L 955.10 739.30 L 953.00 749.40 L 951.30 759.70 L 950.10 770.10 L 949.40 780.70 L 949.10 791.50 L 949.40 802.30 L 950.10 812.90 L 951.30 823.30 L 953.00 833.60 L 955.10 843.70 L 957.70 853.70 L 960.70 863.50 L 964.20 873.00 L 968.00 882.40 L 972.20 891.50 L 976.90 900.50 L 981.90 909.20 L 987.30 917.70 L 993.00 925.90 L 999.10 933.80 L 1005.50 941.50 L 1012.30 948.80 L 1019.30 955.80 L 1026.70 962.60 L 1034.30 969.00 L 1042.30 975.10 L 1050.50 980.80 L 1058.90 986.20 L 1067.60 991.20 L 1076.60 995.90 L 1085.70 1000.10 L 1095.10 1004.00 L 1104.60 1007.40 L 1114.40 1010.40 L 1124.50 1013.00 L 1134.50 1015.10 L 1144.80 1016.80 L 1155.20 1018.00 L 1165.80 1018.70 L 1176.60 1019.00 L 1187.40 1018.70 L 1198.00 1018.00 L 1208.50 1016.80 L 1218.70 1015.10 L 1228.80 1013.00 L 1238.80 1010.40 L 1248.60 1007.40 L 1258.20 1004.00 L 1267.50 1000.10 L 1276.70 995.90 L 1285.60 991.20 L 1294.30 986.20 L 1302.80 980.80 L 1311.00 975.10 L 1318.90 969.00 L 1326.60 962.60 L 1333.90 955.80 L 1341.00 948.80 L 1347.70 941.50 L 1354.10 933.80 L 1360.20 925.90 L 1366.00 917.70 L 1371.30 909.20 L 1376.30 900.50 L 1381.00 891.50 L 1385.20 882.40 L 1389.10 873.00 L 1392.50 863.50 L 1395.50 853.70 L 1398.10 843.70 L 1400.20 833.60 L 1401.90 823.30 L 1403.10 812.90 L 1403.90 802.30 L 1404.10 791.50 L 1403.90 780.70 L 1403.10 770.10 L 1401.90 759.70 L 1400.20 749.40 L 1398.10 739.30 L 1395.50 729.30 L 1392.50 719.50 L 1389.10 710.00 L 1385.20 700.60 L 1381.00 691.50 L 1376.30 682.50 L 1371.30 673.80 L 1366.00 665.30 L 1360.20 657.10 L 1354.10 649.20 L 1347.70 641.50 L 1341.00 634.20 L 1333.90 627.20 L 1326.60 620.40 L 1318.90 614.00 L 1311.00 607.90 L 1302.80 602.20 L 1294.40 596.80 L 1285.60 591.80 L 1276.70 587.10 L 1267.50 582.90 L 1258.20 579.00 L 1248.60 575.60 L 1238.80 572.60 L 1228.80 570.00 L 1218.70 567.90 L 1208.50 566.20 L 1198.10 565.00 L 1187.40 564.30 L 1176.60 564.00 Z M 1176.60 958.60 L 1167.30 958.30 L 1158.30 957.60 L 1149.40 956.40 L 1140.70 954.70 L 1132.20 952.60 L 1123.70 950.10 L 1115.50 947.10 L 1107.60 943.70 L 1099.80 939.90 L 1092.30 935.80 L 1084.90 931.20 L 1077.90 926.30 L 1071.20 921.10 L 1064.70 915.60 L 1058.50 909.70 L 1052.60 903.40 L 1047.00 897.00 L 1041.80 890.20 L 1036.90 883.20 L 1032.30 875.80 L 1028.20 868.30 L 1024.40 860.60 L 1021.00 852.60 L 1018.10 844.40 L 1015.50 835.90 L 1013.40 827.40 L 1011.70 818.70 L 1010.50 809.80 L 1009.80 800.80 L 1009.50 791.50 L 1009.80 782.20 L 1010.50 773.20 L 1011.70 764.30 L 1013.40 755.60 L 1015.50 747.10 L 1018.10 738.60 L 1021.00 730.40 L 1024.40 722.40 L 1028.20 714.70 L 1032.30 707.20 L 1036.90 699.80 L 1041.80 692.80 L 1047.00 686.00 L 1052.60 679.60 L 1058.50 673.30 L 1064.70 667.40 L 1071.20 661.90 L 1077.90 656.70 L 1084.90 651.80 L 1092.30 647.20 L 1099.80 643.10 L 1107.60 639.30 L 1115.50 635.90 L 1123.70 632.90 L 1132.20 630.40 L 1140.70 628.30 L 1149.40 626.60 L 1158.30 625.40 L 1167.30 624.70 L 1176.60 624.40 L 1185.90 624.70 L 1195.00 625.40 L 1203.80 626.60 L 1212.50 628.30 L 1221.00 630.40 L 1229.50 632.90 L 1237.70 635.90 L 1245.70 639.30 L 1253.40 643.10 L 1261.00 647.20 L 1268.30 651.80 L 1275.30 656.70 L 1282.10 661.90 L 1288.60 667.40 L 1294.80 673.30 L 1300.70 679.60 L 1306.20 686.00 L 1311.50 692.80 L 1316.30 699.80 L 1320.90 707.20 L 1325.10 714.70 L 1328.80 722.40 L 1332.20 730.40 L 1335.20 738.60 L 1337.80 747.10 L 1339.90 755.60 L 1341.50 764.30 L 1342.70 773.20 L 1343.50 782.20 L 1343.70 791.50 L 1343.50 800.80 L 1342.70 809.80 L 1341.50 818.70 L 1339.90 827.40 L 1337.80 835.90 L 1335.20 844.40 L 1332.20 852.60 L 1328.80 860.60 L 1325.10 868.30 L 1320.90 875.80 L 1316.30 883.20 L 1311.50 890.20 L 1306.20 897.00 L 1300.70 903.40 L 1294.80 909.70 L 1288.60 915.60 L 1282.10 921.10 L 1275.30 926.30 L 1268.30 931.20 L 1261.00 935.80 L 1253.40 939.90 L 1245.70 943.70 L 1237.70 947.10 L 1229.50 950.10 L 1221.00 952.60 L 1212.50 954.70 L 1203.80 956.40 L 1195.00 957.60 L 1185.90 958.30 L 1176.60 958.60 Z" fill="#5d83ff" fill-rule="nonzero" node-id="183" stroke="none" target-height="455" target-width="455" target-x="949.1" target-y="564"></path><path d="M 1169.10 563.00 L 1158.40 563.30 L 1147.80 564.00 L 1137.50 565.20 L 1127.30 566.90 L 1117.30 569.00 L 1107.30 571.60 L 1097.60 574.50 L 1088.10 577.90 L 1078.80 581.80 L 1069.70 586.00 L 1060.80 590.60 L 1052.20 595.60 L 1043.80 600.90 L 1035.60 606.60 L 1027.80 612.60 L 1020.10 619.00 L 1012.80 625.70 L 1005.90 632.70 L 999.20 640.00 L 992.80 647.60 L 986.70 655.50 L 981.00 663.70 L 975.70 672.00 L 970.70 680.70 L 966.10 689.60 L 961.90 698.70 L 958.10 708.00 L 954.70 717.50 L 951.70 727.20 L 949.10 737.20 L 947.00 747.20 L 945.30 757.40 L 944.10 767.70 L 943.40 778.30 L 943.10 789.00 L 943.40 799.70 L 944.10 810.30 L 945.30 820.60 L 947.00 830.80 L 949.10 840.80 L 951.70 850.80 L 954.70 860.50 L 958.10 870.00 L 961.90 879.30 L 966.10 888.40 L 970.70 897.30 L 975.70 906.00 L 981.00 914.30 L 986.70 922.50 L 992.80 930.40 L 999.20 938.00 L 1005.90 945.30 L 1012.80 952.30 L 1020.10 959.00 L 1027.80 965.40 L 1035.60 971.40 L 1043.80 977.10 L 1052.20 982.40 L 1060.80 987.40 L 1069.70 992.00 L 1078.80 996.20 L 1088.10 1000.10 L 1097.60 1003.50 L 1107.30 1006.40 L 1117.30 1009.00 L 1127.30 1011.10 L 1137.50 1012.80 L 1147.80 1014.00 L 1158.40 1014.70 L 1169.10 1015.00 L 1179.90 1014.70 L 1190.40 1014.00 L 1200.80 1012.80 L 1210.90 1011.10 L 1220.90 1009.00 L 1230.90 1006.40 L 1240.60 1003.50 L 1250.10 1000.10 L 1259.40 996.20 L 1268.50 992.00 L 1277.40 987.40 L 1286.10 982.40 L 1294.50 977.10 L 1302.60 971.40 L 1310.50 965.40 L 1318.10 959.00 L 1325.40 952.30 L 1332.40 945.30 L 1339.10 938.00 L 1345.50 930.40 L 1351.50 922.50 L 1357.20 914.30 L 1362.50 906.00 L 1367.50 897.30 L 1372.10 888.40 L 1376.40 879.30 L 1380.20 870.00 L 1383.60 860.50 L 1386.60 850.80 L 1389.20 840.80 L 1391.30 830.80 L 1392.90 820.60 L 1394.10 810.30 L 1394.90 799.70 L 1395.10 789.00 L 1394.90 778.30 L 1394.10 767.70 L 1392.90 757.40 L 1391.30 747.20 L 1389.20 737.20 L 1386.60 727.20 L 1383.60 717.50 L 1380.20 708.00 L 1376.40 698.70 L 1372.10 689.60 L 1367.50 680.70 L 1362.50 672.00 L 1357.20 663.70 L 1351.50 655.50 L 1345.50 647.60 L 1339.10 640.00 L 1332.40 632.70 L 1325.40 625.70 L 1318.10 619.00 L 1310.50 612.60 L 1302.60 606.60 L 1294.50 600.90 L 1286.10 595.60 L 1277.40 590.60 L 1268.50 586.00 L 1259.40 581.80 L 1250.10 577.90 L 1240.60 574.50 L 1230.90 571.60 L 1220.90 569.00 L 1210.90 566.90 L 1200.80 565.20 L 1190.40 564.00 L 1179.90 563.30 L 1169.10 563.00 Z M 1169.10 955.00 L 1159.90 954.70 L 1150.90 954.00 L 1142.10 952.80 L 1133.50 951.20 L 1125.00 949.10 L 1116.60 946.50 L 1108.40 943.60 L 1100.50 940.20 L 1092.80 936.50 L 1085.30 932.30 L 1078.10 927.80 L 1071.10 923.00 L 1064.30 917.80 L 1057.90 912.20 L 1051.70 906.40 L 1045.90 900.20 L 1040.40 893.80 L 1035.20 887.10 L 1030.30 880.10 L 1025.80 872.80 L 1021.60 865.30 L 1017.90 857.60 L 1014.60 849.70 L 1011.60 841.50 L 1009.00 833.10 L 1007.00 824.70 L 1005.30 816.00 L 1004.10 807.20 L 1003.40 798.20 L 1003.10 789.00 L 1003.40 779.80 L 1004.10 770.80 L 1005.30 762.00 L 1007.00 753.30 L 1009.00 744.90 L 1011.60 736.50 L 1014.60 728.30 L 1017.90 720.40 L 1021.60 712.70 L 1025.80 705.20 L 1030.30 697.90 L 1035.20 690.90 L 1040.40 684.20 L 1045.90 677.80 L 1051.70 671.60 L 1057.90 665.80 L 1064.30 660.20 L 1071.10 655.00 L 1078.10 650.20 L 1085.30 645.70 L 1092.80 641.50 L 1100.50 637.80 L 1108.40 634.40 L 1116.60 631.50 L 1125.00 628.90 L 1133.50 626.80 L 1142.10 625.20 L 1150.90 624.00 L 1159.90 623.30 L 1169.10 623.00 L 1178.30 623.30 L 1187.30 624.00 L 1196.20 625.20 L 1204.80 626.80 L 1213.20 628.90 L 1221.60 631.50 L 1229.80 634.40 L 1237.70 637.80 L 1245.40 641.50 L 1252.90 645.70 L 1260.20 650.20 L 1267.20 655.00 L 1273.90 660.20 L 1280.30 665.80 L 1286.50 671.60 L 1292.40 677.80 L 1297.90 684.20 L 1303.10 690.90 L 1307.90 697.90 L 1312.50 705.20 L 1316.60 712.70 L 1320.30 720.40 L 1323.70 728.30 L 1326.60 736.50 L 1329.20 744.90 L 1331.30 753.30 L 1332.90 762.00 L 1334.10 770.80 L 1334.90 779.80 L 1335.10 789.00 L 1334.90 798.20 L 1334.10 807.20 L 1332.90 816.00 L 1331.30 824.70 L 1329.20 833.10 L 1326.60 841.50 L 1323.70 849.70 L 1320.30 857.60 L 1316.60 865.30 L 1312.50 872.80 L 1307.90 880.10 L 1303.10 887.10 L 1297.90 893.80 L 1292.40 900.20 L 1286.50 906.40 L 1280.30 912.20 L 1273.90 917.80 L 1267.20 923.00 L 1260.20 927.80 L 1252.90 932.30 L 1245.40 936.50 L 1237.70 940.20 L 1229.80 943.60 L 1221.60 946.50 L 1213.20 949.10 L 1204.80 951.20 L 1196.20 952.80 L 1187.30 954.00 L 1178.30 954.70 L 1169.10 955.00 Z" fill="#3a3a77" fill-rule="nonzero" node-id="185" stroke="none" target-height="452" target-width="452" target-x="943.1" target-y="563"></path><g node-id="198"><path d="M 1349.10 789.00 L 1348.80 799.00 L 1348.00 808.80 L 1346.80 818.30 L 1345.00 827.70 L 1342.70 836.90 L 1339.90 846.00 L 1336.70 854.80 L 1333.10 863.40 L 1329.00 871.70 L 1324.50 879.80 L 1319.60 887.70 L 1314.40 895.30 L 1308.70 902.60 L 1302.80 909.60 L 1296.40 916.30 L 1289.70 922.60 L 1282.70 928.60 L 1275.50 934.30 L 1267.90 939.50 L 1260.00 944.40 L 1251.90 948.90 L 1243.50 953.00 L 1234.90 956.60 L 1226.10 959.80 L 1217.00 962.60 L 1207.80 964.80 L 1198.40 966.60 L 1188.90 967.90 L 1179.10 968.70 L 1169.10 969.00 L 1159.10 968.70 L 1149.40 967.90 L 1139.80 966.60 L 1130.40 964.80 L 1121.30 962.60 L 1112.20 959.80 L 1103.30 956.60 L 1094.70 953.00 L 1086.40 948.90 L 1078.30 944.40 L 1070.40 939.50 L 1062.80 934.30 L 1055.50 928.60 L 1048.50 922.60 L 1041.80 916.30 L 1035.50 909.60 L 1029.50 902.60 L 1023.90 895.30 L 1018.60 887.70 L 1013.70 879.80 L 1009.20 871.70 L 1005.20 863.40 L 1001.50 854.80 L 998.30 846.00 L 995.50 836.90 L 993.30 827.70 L 991.50 818.30 L 990.20 808.80 L 989.40 799.00 L 989.10 789.00 L 989.40 779.00 L 990.20 769.20 L 991.50 759.70 L 993.30 750.30 L 995.50 741.10 L 998.30 732.00 L 1001.50 723.20 L 1005.20 714.60 L 1009.20 706.30 L 1013.70 698.20 L 1018.60 690.30 L 1023.90 682.70 L 1029.50 675.40 L 1035.50 668.40 L 1041.80 661.70 L 1048.50 655.40 L 1055.50 649.40 L 1062.80 643.70 L 1070.40 638.50 L 1078.30 633.60 L 1086.40 629.10 L 1094.70 625.00 L 1103.30 621.40 L 1112.20 618.20 L 1121.30 615.40 L 1130.40 613.20 L 1139.80 611.40 L 1149.40 610.10 L 1159.10 609.30 L 1169.10 609.00 L 1179.10 609.30 L 1188.90 610.10 L 1198.40 611.40 L 1207.80 613.20 L 1217.00 615.40 L 1226.10 618.20 L 1234.90 621.40 L 1243.50 625.00 L 1251.90 629.10 L 1260.00 633.60 L 1267.90 638.50 L 1275.50 643.70 L 1282.70 649.40 L 1289.70 655.40 L 1296.40 661.70 L 1302.80 668.40 L 1308.70 675.40 L 1314.40 682.70 L 1319.60 690.30 L 1324.50 698.20 L 1329.00 706.30 L 1333.10 714.60 L 1336.70 723.20 L 1339.90 732.00 L 1342.70 741.10 L 1345.00 750.30 L 1346.80 759.70 L 1348.00 769.20 L 1348.80 779.00 L 1349.10 789.00 Z" fill="url(#未命名的渐变_49)" fill-opacity="0.64" fill-rule="nonzero" group-id="8" node-id="189" stroke="none" target-height="360" target-width="360" target-x="989.1" target-y="609"></path></g><g node-id="199"><g node-id="203"><g node-id="204"><path d="M 762.10 1270.40 L 694.10 1231.20 L 691.40 1228.90 L 690.60 1226.40 L 690.80 1225.00 L 692.30 1222.30 L 695.50 1219.70 L 760.10 1182.50 L 763.20 1181.10 L 766.80 1180.10 L 770.40 1179.70 L 776.20 1180.20 L 780.10 1181.70 L 848.10 1220.90 L 850.70 1223.20 L 851.50 1225.80 L 851.40 1227.10 L 849.90 1229.80 L 846.60 1232.40 L 782.00 1269.60 L 778.90 1271.00 L 775.40 1272.00 L 771.70 1272.40 L 765.90 1271.90 L 762.10 1270.40 Z" fill="#a0b3f8" fill-opacity="0.3" fill-rule="nonzero" group-id="9,13,14" id="路径-4" node-id="63" stroke="none" target-height="92.70007" target-width="160.90002" target-x="690.6" target-y="1179.7"></path></g><path d="M 851.50 1199.80 L 851.50 1051.70 L 690.60 1051.70 L 690.60 1199.90 L 691.40 1202.50 L 692.40 1203.70 L 694.10 1204.90 L 762.10 1244.10 L 765.90 1245.50 L 771.70 1246.10 L 775.40 1245.60 L 778.90 1244.70 L 782.10 1243.20 L 846.70 1206.00 L 848.70 1204.60 L 850.10 1203.10 L 851.10 1201.50 L 851.50 1200.00 Z" fill="url(#未命名的渐变_23)" fill-rule="nonzero" group-id="9,13" id="路径-5" node-id="64" stroke="none" target-height="194.40002" target-width="160.90002" target-x="690.6" target-y="1051.7"></path><path d="M 762.10 1096.30 L 694.10 1057.10 L 691.40 1054.70 L 690.80 1053.50 L 690.60 1052.20 L 690.80 1050.80 L 692.30 1048.10 L 695.50 1045.60 L 760.10 1008.30 L 763.20 1006.80 L 766.80 1005.90 L 770.40 1005.50 L 773.90 1005.60 L 778.30 1006.60 L 848.10 1046.60 L 850.70 1049.00 L 851.30 1050.20 L 851.50 1051.50 L 851.40 1052.90 L 849.90 1055.60 L 846.70 1058.20 L 782.00 1095.40 L 778.90 1096.90 L 775.40 1097.80 L 771.70 1098.30 L 765.90 1097.80 L 762.10 1096.30 Z" fill="#ffffff" fill-rule="nonzero" group-id="9,13" id="路径-6" node-id="65" stroke="none" target-height="92.80005" target-width="160.90002" target-x="690.6" target-y="1005.5"></path></g></g></svg>