<?xml version="1.0" standalone="no"?><!DOCTYPE svg PUBLIC "-//W3C//DTD SVG 1.1//EN" "http://www.w3.org/Graphics/SVG/1.1/DTD/svg11.dtd"><svg t="1743581491086" class="icon" viewBox="0 0 1024 1024" version="1.1" xmlns="http://www.w3.org/2000/svg" p-id="2514" xmlns:xlink="http://www.w3.org/1999/xlink" width="200" height="200"><path d="M142.2528 402.112c-0.2432 0-0.448 0.1152-0.6784 0.1344l1.3632 0C142.6944 402.2208 142.4896 402.112 142.2528 402.112zM137.2928 414.144l-0.096-0.128C137.2352 414.0608 137.2544 414.112 137.2928 414.144zM896 512.0064 560 224l0 144.0064c0 0-219.5264 26.5984-322.496 115.0528C131.0016 574.5664 128 800 128 800l17.8048-1.728c0 0 63.7312-143.7952 225.8304-142.2784 87.2704 0.8064 149.6704 0.7296 188.3648 0.5056L560 800 896 512.0064 896 512.0064zM896 512.0064" fill="#272636" p-id="2515"></path></svg>