<?xml version="1.0" standalone="no"?><!DOCTYPE svg PUBLIC "-//W3C//DTD SVG 1.1//EN" "http://www.w3.org/Graphics/SVG/1.1/DTD/svg11.dtd"><svg t="1743261884901" class="icon" viewBox="0 0 1024 1024" version="1.1" xmlns="http://www.w3.org/2000/svg" p-id="3871" xmlns:xlink="http://www.w3.org/1999/xlink" width="200" height="200"><path d="M943.9232 197.12l-71.8336 0L872.0896 172.0832l-24.4224-11.776C842.752 157.9008 726.5792 102.4 624.896 102.4c-47.5648 0-85.6576 12.0832-113.7664 35.9424C483.0208 114.4832 444.9792 102.4 397.3632 102.4 295.7312 102.4 179.5072 157.9008 174.6432 160.256l-24.4224 11.776L150.2208 197.12l-70.144 0C64.1024 197.12 51.2 212.992 51.2 232.6016l0 653.5168C51.2 905.728 64.1024 921.6 80.0768 921.6l863.8976 0C959.8976 921.6 972.8 905.728 972.8 886.1184L972.8 232.6016C972.8 212.992 959.8976 197.12 943.9232 197.12zM833.5872 204.288l0 518.656c-59.5968-25.088-217.856-81.92-303.2064-20.6336L530.3808 179.9168c24.064-22.1184 57.9584-30.208 94.5152-30.208C720.4352 149.7088 833.5872 204.288 833.5872 204.288zM790.016 755.2512l-253.6448 0C585.8816 697.5488 708.4032 725.2992 790.016 755.2512zM397.3632 149.7088c36.5568 0 70.4512 8.1408 94.5152 30.208l0 522.3936C406.528 641.024 248.2688 697.856 188.672 722.944L188.672 204.288C188.672 204.288 301.824 149.7088 397.3632 149.7088zM485.888 755.2512 232.192 755.2512C313.7536 725.2992 436.3776 697.4976 485.888 755.2512zM915.0976 850.6368 108.9024 850.6368 108.9024 268.0832l41.3184 0 0 487.2192 0 47.3088 38.4512 0 322.4576 0 322.4576 0 38.4512 0 0-47.3088L872.0384 268.0832l43.008 0L915.0464 850.6368z" fill="#272636" p-id="3872"></path></svg>