<?xml version="1.0" standalone="no"?><!DOCTYPE svg PUBLIC "-//W3C//DTD SVG 1.1//EN" "http://www.w3.org/Graphics/SVG/1.1/DTD/svg11.dtd"><svg t="1743262534414" class="icon" viewBox="0 0 1024 1024" version="1.1" xmlns="http://www.w3.org/2000/svg" p-id="19694" xmlns:xlink="http://www.w3.org/1999/xlink" width="200" height="200"><path d="M18.395429 402.614857l493.714285-402.285714 493.714286 402.285714h-987.428571zM493.604571 182.857143a73.142857 73.142857 0 1 0 73.142858 73.142857 73.142857 73.142857 0 0 0-73.142858-73.142857zM127.890286 841.142857v-329.142857H91.318857v-73.142857h182.857143v73.142857H237.604571v329.142857H127.890286z m219.428571 0v-329.142857H310.747429v-73.142857h182.857142v73.142857h-36.571428v329.142857H347.318857z m219.428572 0v-329.142857h-36.571429v-73.142857h182.857143v73.142857h-36.571429v329.142857h-109.714285z m219.428571 0v-329.142857h-36.571429v-73.142857h182.857143v73.142857h-36.571428v329.142857h-109.714286zM91.318857 877.714286h841.142857v73.142857h73.142857v73.142857H18.176v-73.142857h73.142857v-73.142857z" fill="#7C818A" p-id="19695"></path></svg>